<svg width="637" height="127" viewBox="0 0 637 127" fill="none" xmlns="http://www.w3.org/2000/svg">
<path d="M93.1492 43.561C56.6498 48.9097 36.2339 53.3601 0 66.7232C17.2796 72.5659 27.2638 78.069 45.4543 90.7541C39.8431 104.695 38.9114 112.436 42.2533 126.076C67.8126 117.566 82.0967 115.874 107.554 114.206L93.1492 43.561Z" fill="#1C74BC"/>
<path d="M543.851 43.561C580.35 48.9097 600.766 53.3601 637 66.7232C619.72 72.5659 609.736 78.069 591.546 90.7541C597.157 104.695 598.089 112.436 594.747 126.076C569.187 117.566 554.903 115.874 529.446 114.206L543.851 43.561Z" fill="#1C74BC"/>
<path d="M56.9778 92.4912L106.593 112.758L96.3502 58.3269H51.5361L56.9778 92.4912Z" fill="#2B3991"/>
<path d="M580.022 92.4912L530.407 112.758L540.65 58.3269H585.464L580.022 92.4912Z" fill="#2B3991"/>
<path d="M33.2905 24.4522C256.295 -8.23723 381.342 -8.06412 604.35 24.4522L578.742 93.9389C359.608 63.9692 284.555 63.8984 57.6182 93.9389L33.2905 24.4522Z" fill="#00ADEF"/>
<path d="M303.41 36.6796L312.68 36.6058L312.701 40.1458L303.431 40.2195L303.41 36.6796Z" fill="white"/>
<path d="M337.661 46.815C335.561 46.7894 333.735 46.3271 332.183 45.4281C330.652 44.5093 329.473 43.2349 328.648 41.6047C327.823 39.9545 327.42 38.0295 327.44 35.8296C327.459 33.6297 327.897 31.7249 328.751 30.1152C329.606 28.4855 330.807 27.24 332.355 26.3789C333.923 25.5179 335.756 25.1003 337.856 25.1259C339.956 25.1515 341.772 25.6137 343.304 26.5124C344.856 27.4114 346.045 28.686 346.87 30.3362C347.695 31.9664 348.098 33.8814 348.078 36.0813C348.058 38.2812 347.621 40.196 346.766 41.8257C345.912 43.4354 344.701 44.6807 343.133 45.5617C341.585 46.4228 339.761 46.8406 337.661 46.815ZM337.694 43.1852C339.454 43.2066 340.839 42.6035 341.85 41.3757C342.881 40.1482 343.407 38.3645 343.428 36.0246C343.45 33.6847 342.966 31.8987 341.977 30.6665C340.988 29.4144 339.604 28.7775 337.824 28.7557C336.044 28.734 334.648 29.337 333.637 30.5648C332.646 31.7728 332.14 33.5467 332.119 35.8867C332.098 38.2266 332.582 40.0226 333.571 41.2747C334.56 42.5269 335.934 43.1637 337.694 43.1852Z" fill="white"/>
<path d="M371.617 26.155L371.191 47.3007L367.712 47.2056L357.457 33.4508L357.186 46.9181L352.837 46.7993L353.264 25.6536L356.712 25.7478L366.968 39.4426L367.238 26.0354L371.617 26.155Z" fill="white"/>
<path d="M377.5 26.3911L382.176 26.5809L381.657 43.9132L391.1 44.2964L390.985 48.1047L376.867 47.5316L377.5 26.3911Z" fill="white"/>
<path d="M396.523 27.2216L401.198 27.456L400.415 48.5915L395.741 48.3571L396.523 27.2216Z" fill="white"/>
<path d="M427.026 28.9718L426.07 50.1002L422.596 49.8872L412.695 35.7865L412.086 49.2428L407.744 48.9765L408.7 27.8481L412.143 28.0593L422.048 42.1L422.654 28.7037L427.026 28.9718Z" fill="white"/>
<path d="M432.911 29.4076L447.451 30.4964L447.25 34.1209L437.258 33.3726L436.985 38.3151L446.379 39.0185L446.179 42.643L436.785 41.9395L436.492 47.2414L446.484 47.9897L446.284 51.6142L431.745 50.5254L432.911 29.4076Z" fill="white"/>
<path d="M464.901 32.0107L479.416 33.3841L479.164 37.0053L469.188 36.0615L468.843 40.9994L478.221 41.8868L477.969 45.508L468.591 44.6206L468.221 49.9177L478.196 50.8616L477.943 54.4828L463.428 53.1094L464.901 32.0107Z" fill="white"/>
<path d="M504.885 36.111L493.75 56.1732L490.022 55.7707L482.217 33.6633L487.049 34.1851L492.393 50.1752L500.172 35.6021L504.885 36.111Z" fill="white"/>
<path d="M508.061 36.5258L522.535 38.2824L522.211 41.8979L512.264 40.6907L511.823 45.621L521.174 46.7559L520.85 50.3714L511.499 49.2365L511.025 54.5253L520.973 55.7325L520.649 59.3481L506.175 57.5915L508.061 36.5258Z" fill="white"/>
<path d="M546.097 41.4385L544 62.4843L540.552 62.0185L531.452 47.2056L530.116 60.6092L525.805 60.027L527.903 38.9812L531.322 39.4429L540.427 54.1962L541.757 40.8523L546.097 41.4385Z" fill="white"/>
<path d="M556.405 46.8172L549.848 45.8398L550.264 42.0526L568.008 44.6973L567.592 48.4845L561.034 47.5071L559.139 64.7432L554.51 64.0533L556.405 46.8172Z" fill="white"/>
<path d="M82.3554 54.3482C83.7065 54.5494 84.7823 55.0906 85.5828 55.9717C86.4023 56.8294 86.8856 57.9584 87.0328 59.3587C87.238 61.3106 86.6794 62.9352 85.3571 64.2326C84.0538 65.5064 82.1715 66.2727 79.7104 66.5314C78.2041 66.6897 76.7262 66.6091 75.2769 66.2895C73.8487 65.9677 72.6361 65.4516 71.6391 64.7413L72.6931 61.6059C74.8078 62.9496 76.9791 63.5043 79.2068 63.2702C80.6283 63.1208 81.6601 62.7335 82.3023 62.1082C82.9422 61.4618 83.202 60.5657 83.0816 59.4201C82.9634 58.2956 82.5157 57.506 81.7386 57.0515C80.9805 56.5734 79.8589 56.4124 78.3737 56.5685L75.414 56.8796L75.0728 53.6335L77.4915 53.3793C80.3982 53.0738 81.7367 51.8284 81.507 49.6431C81.3999 48.6247 80.9992 47.8731 80.3047 47.3884C79.6314 46.9014 78.722 46.7182 77.5763 46.8386C76.5791 46.9434 75.5819 47.252 74.5847 47.7644C73.6064 48.2533 72.6694 48.931 71.7738 49.7973L70.0909 46.9496C70.8972 46.0497 71.9654 45.294 73.2954 44.6822C74.6467 44.0683 76.0436 43.6855 77.4864 43.5339C79.6929 43.302 81.5107 43.6579 82.9398 44.6017C84.3668 45.5243 85.1761 46.8978 85.3679 48.7225C85.4782 49.9765 85.2642 51.1037 84.7258 52.1041C84.2065 53.0811 83.4163 53.8291 82.3554 54.3482Z" fill="white"/>
<path d="M229.296 47.3701L229.412 50.6961L214.254 51.2255L214.147 48.1873L221.535 39.6683C222.396 38.6563 223.015 37.7382 223.392 36.9138C223.789 36.0674 223.974 35.2392 223.945 34.429C223.91 33.4056 223.584 32.6485 222.969 32.1577C222.375 31.6448 221.513 31.408 220.383 31.4475C218.358 31.5182 216.349 32.3675 214.356 33.9954L212.876 31.0372C213.744 30.2171 214.863 29.5483 216.232 29.0309C217.622 28.4914 219.021 28.1971 220.428 28.1479C222.688 28.069 224.498 28.5608 225.859 29.6233C227.219 30.6858 227.932 32.1551 227.998 34.0313C228.043 35.3319 227.809 36.5675 227.295 37.7381C226.78 38.8875 225.886 40.1888 224.613 41.6421L219.286 47.7197L229.296 47.3701Z" fill="white"/>
<path d="M98.1275 63.5197C95.4754 63.7985 93.3467 63.0355 91.7413 61.2307C90.1336 59.4048 89.1324 56.6141 88.7377 52.8588C88.3475 49.1459 88.7499 46.24 89.945 44.1409C91.1402 42.0418 93.0638 40.8529 95.7158 40.5741C98.3679 40.2954 100.497 41.0584 102.102 42.8631C103.708 44.6679 104.705 47.4267 105.096 51.1395C105.488 54.8736 105.088 57.8008 103.895 59.9212C102.702 62.0415 100.78 63.241 98.1275 63.5197ZM97.7897 60.3054C99.2324 60.1538 100.213 59.3857 100.733 58.0012C101.25 56.5954 101.357 54.4498 101.054 51.5643C100.753 48.7001 100.205 46.6555 99.4117 45.4304C98.6157 44.1841 97.4964 43.6368 96.0537 43.7884C94.6109 43.9401 93.6298 44.7081 93.1104 46.0927C92.5887 47.456 92.4784 49.5698 92.7794 52.434C93.0827 55.3195 93.6334 57.3959 94.4316 58.6634C95.2276 59.9097 96.3469 60.4571 97.7897 60.3054Z" fill="white"/>
<path d="M240.894 50.0755C238.228 50.122 236.174 49.1764 234.732 47.2386C233.289 45.2795 232.535 42.4122 232.469 38.6368C232.404 34.904 233.058 32.0442 234.432 30.0572C235.805 28.0703 237.825 27.0535 240.491 27.007C243.158 26.9605 245.212 27.9061 246.654 29.8439C248.096 31.7817 248.85 34.617 248.915 38.3497C248.98 42.1038 248.326 44.985 246.953 46.9933C245.58 49.0015 243.56 50.0289 240.894 50.0755ZM240.838 46.844C242.288 46.8187 243.332 46.139 243.971 44.805C244.608 43.4497 244.902 41.3215 244.851 38.4207C244.801 35.5411 244.434 33.4565 243.75 32.1669C243.066 30.856 241.998 30.2132 240.548 30.2385C239.097 30.2638 238.053 30.9435 237.415 32.2775C236.776 33.5902 236.482 35.6863 236.533 38.5659C236.583 41.4667 236.951 43.5833 237.636 44.9156C238.32 46.2265 239.387 46.8693 240.838 46.844Z" fill="white"/>
<path d="M267.296 45.3701L267.412 48.6961L252.254 49.2255L252.147 46.1873L259.535 37.6683C260.396 36.6563 261.015 35.7382 261.392 34.9138C261.789 34.0674 261.974 33.2392 261.945 32.429C261.909 31.4056 261.584 30.6485 260.969 30.1577C260.375 29.6448 259.513 29.408 258.383 29.4475C256.358 29.5182 254.349 30.3675 252.356 31.9954L250.876 29.0372C251.744 28.2171 252.863 27.5483 254.232 27.0309C255.622 26.4914 257.021 26.1971 258.428 26.1479C260.688 26.069 262.498 26.5608 263.859 27.6233C265.219 28.6858 265.932 30.1551 265.998 32.0313C266.043 33.3319 265.809 34.5675 265.295 35.7381C264.78 36.8875 263.886 38.1888 262.613 39.6421L257.286 45.7197L267.296 45.3701Z" fill="white"/>
<path d="M279.894 49.0755C277.228 49.122 275.174 48.1764 273.732 46.2386C272.289 44.2795 271.535 41.4122 271.469 37.6368C271.404 33.904 272.058 31.0442 273.432 29.0572C274.805 27.0703 276.825 26.0535 279.491 26.007C282.158 25.9605 284.212 26.9061 285.654 28.8439C287.096 30.7817 287.85 33.617 287.915 37.3497C287.98 41.1038 287.326 43.985 285.953 45.9933C284.58 48.0015 282.56 49.0289 279.894 49.0755ZM279.838 45.844C281.288 45.8187 282.332 45.139 282.971 43.805C283.608 42.4497 283.902 40.3215 283.851 37.4207C283.801 34.5411 283.434 32.4565 282.75 31.1669C282.066 29.856 280.998 29.2132 279.548 29.2385C278.097 29.2638 277.053 29.9435 276.415 31.2775C275.776 32.5902 275.482 34.6863 275.533 37.5659C275.583 40.4667 275.951 42.5833 276.636 43.9156C277.32 45.2265 278.387 45.8693 279.838 45.844Z" fill="white"/>
<path d="M120.731 56.7404L122.949 56.3858C124.829 56.0928 125.684 54.9687 125.513 53.0135L124.099 36.8513L128.211 36.4915L129.622 52.6219C129.797 54.6196 129.401 56.2175 128.435 57.4155C127.489 58.5905 125.98 59.3329 123.908 59.6426L121.308 60.0307L120.731 56.7404Z" fill="white"/>
<path d="M144.65 57.828C141.564 58.0437 139.167 57.4094 137.46 55.9249C135.752 54.4404 134.791 52.1659 134.577 49.1014L133.639 35.6941L137.661 35.4129L138.614 49.0436C138.75 50.9802 139.31 52.4166 140.295 53.3528C141.279 54.2678 142.654 54.6635 144.42 54.54C146.165 54.418 147.46 53.8248 148.305 52.7606C149.15 51.6964 149.506 50.2066 149.372 48.2913L148.419 34.6606L152.441 34.3793L153.379 47.7866C153.591 50.8298 152.956 53.216 151.473 54.9449C149.989 56.6527 147.714 57.6137 144.65 57.828Z" fill="white"/>
<path d="M176.819 31.5577L177.999 54.0868L174.9 54.2493L161.996 39.1599L162.82 54.8823L158.985 55.0833L157.805 32.5542L160.873 32.3934L173.774 47.4509L172.952 31.7604L176.819 31.5577Z" fill="white"/>
<path d="M181.862 31.0394L196.945 30.2489L197.116 33.5084L186.059 34.0879L186.384 40.2874L196.802 39.7414L196.971 42.969L186.553 43.515L186.898 50.0979L197.955 49.5185L198.126 52.778L183.043 53.5685L181.862 31.0394Z" fill="white"/>
</svg>
