<svg width="41" height="40" viewBox="0 0 41 40" fill="none" xmlns="http://www.w3.org/2000/svg">
<path fill-rule="evenodd" clip-rule="evenodd" d="M13.8224 7.15548C14.1349 6.84302 14.5588 6.66748 15.0007 6.66748C15.4427 6.66748 15.8666 6.84302 16.1791 7.15548L27.8464 18.8227C28.1588 19.1353 28.3344 19.5592 28.3344 20.0011C28.3344 20.4431 28.1588 20.8669 27.8464 21.1795L16.1791 32.8468C15.8648 33.1504 15.4438 33.3184 15.0067 33.3146C14.5697 33.3108 14.1517 33.1355 13.8427 32.8265C13.5336 32.5174 13.3583 32.0994 13.3545 31.6624C13.3507 31.2253 13.5187 30.8043 13.8224 30.49L24.3112 20.0011L13.8224 9.51226C13.5099 9.1997 13.3344 8.77584 13.3344 8.33387C13.3344 7.89191 13.5099 7.46804 13.8224 7.15548Z" fill="#C9C9C9"/>
</svg>
