<svg width="25" height="24" viewBox="0 0 25 24" fill="none" xmlns="http://www.w3.org/2000/svg">
<path fill-rule="evenodd" clip-rule="evenodd" d="M21.0023 5.9584C21.0113 6.56543 20.9353 7.32646 20.8683 7.88149C20.847 8.06485 20.8136 8.24659 20.7683 8.42552C21.6243 10.0106 22.0023 11.9177 22.0023 14.0008C22.0023 16.4689 20.8153 18.502 18.9662 19.8881C17.1341 21.2611 14.662 22.0012 12.0018 22.0012C9.3417 22.0012 6.86958 21.2611 5.03749 19.8881C3.1884 18.502 2.00134 16.4689 2.00134 14.0008C2.00134 11.9177 2.37836 10.0106 3.2364 8.42552C3.19105 8.24659 3.15764 8.06485 3.1364 7.88149C3.06739 7.32646 2.99139 6.56543 3.00139 5.9584C3.01139 5.27536 3.1014 4.59233 3.2004 3.9143C3.2464 3.60028 3.31841 3.30527 3.65942 3.11926C4.00744 2.92925 4.37346 2.99925 4.73447 3.10226C5.95253 3.44728 7.09459 3.9323 8.16864 4.51233C9.3017 4.17331 10.5798 4.0003 12.0018 4.0003C13.4239 4.0003 14.702 4.17331 15.834 4.51333C16.9231 3.9179 18.0749 3.44499 19.2682 3.10326C19.6292 3.00025 19.9962 2.92925 20.3432 3.11926C20.6832 3.30527 20.7563 3.60028 20.8033 3.9143C20.9013 4.59233 20.9913 5.27536 21.0013 5.9584H21.0023ZM20.0022 14.0008C20.0022 12.3137 19.6142 10.0006 17.5021 10.0006C16.55 10.0006 15.649 10.2506 14.749 10.5006C13.8499 10.7506 12.9519 11.0006 12.0018 11.0006C11.0518 11.0006 10.1537 10.7506 9.25469 10.5006C8.35465 10.2506 7.45461 10.0006 6.50156 10.0006C4.39546 10.0006 4.00144 12.3207 4.00144 14.0008C4.00144 15.7649 4.82848 17.2319 6.23755 18.288C7.66162 19.357 9.69172 20.0011 12.0018 20.0011C14.3119 20.0011 16.341 19.356 17.7661 18.288C19.1752 17.2309 20.0022 15.7649 20.0022 14.0008ZM10.0017 14.5008C10.0017 15.8809 9.3297 17.0009 8.50166 17.0009C7.67362 17.0009 7.00159 15.8809 7.00159 14.5008C7.00159 13.1207 7.67362 12.0007 8.50166 12.0007C9.3297 12.0007 10.0017 13.1207 10.0017 14.5008ZM15.502 17.0009C16.33 17.0009 17.0021 15.8809 17.0021 14.5008C17.0021 13.1207 16.33 12.0007 15.502 12.0007C14.674 12.0007 14.0019 13.1207 14.0019 14.5008C14.0019 15.8809 14.674 17.0009 15.502 17.0009Z" fill="white"/>
</svg>
