<svg width="41" height="40" viewBox="0 0 41 40" fill="none" xmlns="http://www.w3.org/2000/svg">
<path fill-rule="evenodd" clip-rule="evenodd" d="M26.1796 7.15548C26.4921 7.46804 26.6676 7.89191 26.6676 8.33387C26.6676 8.77584 26.4921 9.1997 26.1796 9.51226L15.6908 20.0011L26.1796 30.49C26.4832 30.8043 26.6512 31.2253 26.6474 31.6624C26.6436 32.0994 26.4684 32.5174 26.1593 32.8265C25.8503 33.1355 25.4323 33.3108 24.9952 33.3146C24.5582 33.3184 24.1372 33.1504 23.8228 32.8468L12.1556 21.1795C11.8431 20.8669 11.6676 20.4431 11.6676 20.0011C11.6676 19.5592 11.8431 19.1353 12.1556 18.8227L23.8228 7.15548C24.1354 6.84302 24.5593 6.66748 25.0012 6.66748C25.4432 6.66748 25.8671 6.84302 26.1796 7.15548Z" fill="#C9C9C9"/>
</svg>
