<svg width="20" height="21" viewBox="0 0 20 21" fill="none" xmlns="http://www.w3.org/2000/svg">
<path fill-rule="evenodd" clip-rule="evenodd" d="M3.3335 10.5002C3.3335 8.73204 4.03591 7.03627 5.28621 5.78597C6.53651 4.53566 8.23229 3.83325 10.0005 3.83325C11.7687 3.83325 13.4645 4.53566 14.7148 5.78597C15.9651 7.03627 16.6675 8.73204 16.6675 10.5002C16.6675 12.2684 15.9651 13.9642 14.7148 15.2145C13.4645 16.4648 11.7687 17.1672 10.0005 17.1672C8.23229 17.1672 6.53651 16.4648 5.28621 15.2145C4.03591 13.9642 3.3335 12.2684 3.3335 10.5002ZM10.0005 2.1665C5.39776 2.1665 1.66675 5.89752 1.66675 10.5002C1.66675 15.103 5.39776 18.834 10.0005 18.834C14.6032 18.834 18.3342 15.103 18.3342 10.5002C18.3342 5.89752 14.6032 2.1665 10.0005 2.1665ZM8.30624 12.787C8.25074 12.5735 8.11282 12.3906 7.92271 12.2786C7.73261 12.1666 7.50584 12.1346 7.29214 12.1895C7.07844 12.2444 6.89525 12.3819 6.78275 12.5717C6.67024 12.7615 6.6376 12.9882 6.69199 13.202C7.05784 14.6671 8.56958 15.5005 10.0005 15.5005C11.4881 15.5005 12.8773 14.6571 13.309 13.2004C13.3583 12.9882 13.3225 12.7652 13.2094 12.5791C13.0964 12.393 12.9149 12.2585 12.7039 12.2045C12.493 12.1505 12.2692 12.1812 12.0806 12.29C11.892 12.3989 11.7535 12.5773 11.6947 12.787C11.4781 13.5121 10.7005 13.8337 10.0005 13.8337C9.30045 13.8337 8.52375 13.5129 8.30624 12.787ZM8.75042 8.83349C8.75042 9.16503 8.61872 9.48299 8.38429 9.71742C8.14986 9.95185 7.8319 10.0836 7.50036 10.0836C7.16883 10.0836 6.85087 9.95185 6.61644 9.71742C6.38201 9.48299 6.2503 9.16503 6.2503 8.83349C6.2503 8.50196 6.38201 8.184 6.61644 7.94957C6.85087 7.71513 7.16883 7.58343 7.50036 7.58343C7.8319 7.58343 8.14986 7.71513 8.38429 7.94957C8.61872 8.184 8.75042 8.50196 8.75042 8.83349ZM12.5006 10.0836C12.8321 10.0836 13.1501 9.95185 13.3845 9.71742C13.619 9.48299 13.7507 9.16503 13.7507 8.83349C13.7507 8.50196 13.619 8.184 13.3845 7.94957C13.1501 7.71513 12.8321 7.58343 12.5006 7.58343C12.1691 7.58343 11.8511 7.71513 11.6167 7.94957C11.3822 8.184 11.2505 8.50196 11.2505 8.83349C11.2505 9.16503 11.3822 9.48299 11.6167 9.71742C11.8511 9.95185 12.1691 10.0836 12.5006 10.0836Z" fill="#E21E26"/>
</svg>
