<svg width="25" height="24" viewBox="0 0 25 24" fill="none" xmlns="http://www.w3.org/2000/svg">
<path fill-rule="evenodd" clip-rule="evenodd" d="M14.8497 5.65845C14.3928 5.65826 13.9416 5.75951 13.5286 5.95488C13.1157 6.15026 12.7512 6.43489 12.4616 6.78823C12.172 7.14156 11.9644 7.5548 11.8539 7.99809C11.7434 8.44139 11.7327 8.90369 11.8226 9.35163C11.8535 9.50684 11.8472 9.66717 11.8041 9.81945C11.761 9.97173 11.6824 10.1116 11.5747 10.2276C11.467 10.3436 11.3333 10.4323 11.1847 10.4866C11.036 10.5408 10.8766 10.559 10.7195 10.5397C8.56913 10.2755 6.54203 9.39159 4.88522 7.99557C4.91622 8.5976 5.12523 9.23763 5.57826 9.90766L6.25729 10.9117L5.14223 11.3867L4.92722 11.4787C5.08723 11.6617 5.27924 11.8488 5.49425 12.0338C5.78168 12.2798 6.08575 12.5057 6.40429 12.7098L6.4153 12.7168H6.4163L7.96437 13.6558L6.34429 14.4659C6.26429 14.5059 6.18428 14.5419 6.10428 14.5739C6.45264 14.8633 6.8364 15.1073 7.24634 15.2999L8.6364 15.957L7.47235 16.961C6.83732 17.509 6.19829 17.918 5.36925 18.1341C6.64074 18.8113 8.05982 19.1641 9.50044 19.1611C14.3067 19.1611 18.1769 15.3259 18.1769 10.6267V10.1067L18.6019 9.80765C19.2659 9.34163 19.7349 8.7116 20.071 7.99057H17.9109L17.6388 7.42054C17.3884 6.89318 16.9934 6.44769 16.4999 6.13579C16.0064 5.82389 15.4345 5.65837 14.8507 5.65845H14.8497ZM3.56916 12.9588C3.47479 13.0669 3.40478 13.194 3.36388 13.3315C3.32299 13.469 3.31217 13.6138 3.33215 13.7558C3.44515 14.5569 3.92418 15.2469 4.4542 15.7739C4.59821 15.9169 4.75222 16.054 4.91422 16.185L4.83922 16.205C4.3582 16.325 3.70917 16.35 2.62811 16.245C2.42396 16.2249 2.21859 16.2682 2.03984 16.3688C1.86109 16.4694 1.71761 16.6226 1.62885 16.8075C1.5401 16.9925 1.51036 17.2002 1.54367 17.4026C1.57698 17.605 1.67173 17.7923 1.81507 17.939C2.81589 18.962 4.01147 19.7742 5.33127 20.3276C6.65106 20.881 8.06833 21.1644 9.49944 21.1612C15.2127 21.1612 19.8989 16.725 20.164 11.1267C21.454 10.0437 22.0991 8.57659 22.4471 7.24353C22.4858 7.09557 22.49 6.94071 22.4595 6.79086C22.4289 6.64101 22.3644 6.50015 22.271 6.37913C22.1775 6.25811 22.0574 6.16014 21.9202 6.09276C21.7829 6.02538 21.632 5.99039 21.479 5.99047H19.1259C18.5503 5.09675 17.7092 4.40583 16.7207 4.01481C15.7322 3.62378 14.646 3.5523 13.6148 3.81041C12.5836 4.06852 11.6591 4.64324 10.9714 5.45382C10.2837 6.2644 9.86717 7.2701 9.78046 8.32958C7.93703 7.84971 6.28762 6.81032 5.05923 5.35444C4.95044 5.22582 4.81093 5.12676 4.65363 5.06646C4.49633 5.00616 4.32635 4.98657 4.15946 5.00951C3.99257 5.03246 3.83418 5.09719 3.69899 5.1977C3.5638 5.29821 3.45619 5.43124 3.38615 5.58445C2.78012 6.90651 2.66411 8.43059 3.34015 9.98066L3.10614 10.0807C2.8822 10.1761 2.70075 10.3499 2.59581 10.5695C2.49088 10.7892 2.46965 11.0396 2.53611 11.2737C2.72212 11.9258 3.14014 12.5018 3.56816 12.9588H3.56916Z" fill="white"/>
</svg>
