<?xml version="1.0" encoding="UTF-8" standalone="no"?>
<svg
   xmlns:dc="http://purl.org/dc/elements/1.1/"
   xmlns:cc="http://creativecommons.org/ns#"
   xmlns:rdf="http://www.w3.org/1999/02/22-rdf-syntax-ns#"
   xmlns:svg="http://www.w3.org/2000/svg"
   xmlns="http://www.w3.org/2000/svg"
   viewBox="0 0 755.90533 755.90533"
   height="755.90533"
   width="755.90533"
   xml:space="preserve"
   id="svg2"
   version="1.1"><metadata
     id="metadata8"><rdf:RDF><cc:Work
         rdf:about=""><dc:format>image/svg+xml</dc:format><dc:type
           rdf:resource="http://purl.org/dc/dcmitype/StillImage" /></cc:Work></rdf:RDF></metadata><defs
     id="defs6"><clipPath
       id="clipPath18"
       clipPathUnits="userSpaceOnUse"><path
         id="path16"
         d="M 0,566.929 H 566.929 V 0 H 0 Z" /></clipPath></defs><g
     transform="matrix(1.3333333,0,0,-1.3333333,0,755.90533)"
     id="g10"><g
       id="g12"><g
         clip-path="url(#clipPath18)"
         id="g14"><g
           transform="translate(179.79,328.9633)"
           id="g20"><path
             id="path22"
             style="fill:#231f20;fill-opacity:1;fill-rule:nonzero;stroke:none"
             d="M 0,0 C 0.602,9.095 8.897,16.197 17.897,16.197 26.898,16.197 35.193,9.095 35.795,0 Z M 17.995,25.692 C 1.795,25.692 -10.4,12.595 -10.4,-3.401 -10.4,-18.897 2,-32.6 17.795,-32.6 c 10.777,0 20.126,5.949 25.008,15.235 l -11.094,0.236 c -3.362,-3.781 -8.374,-5.974 -13.51,-5.974 -9.098,0 -16.097,6.501 -18.199,15.101 h 45.892 c 0.199,1.7 0.303,3.497 0.303,5.201 0,15.596 -12.501,28.493 -28.2,28.493" /></g><g
           transform="translate(258.9575,354.6552)"
           id="g24"><path
             id="path26"
             style="fill:#231f20;fill-opacity:1;fill-rule:nonzero;stroke:none"
             d="m 0,0 c -6.399,0 -12.204,-2.098 -16.203,-7.396 h -0.193 v 5.898 h -9.699 v -55.394 h 10.398 v 30.198 c 0,9.297 4.402,17.199 14.595,17.199 11.002,0 13.8,-7.902 13.8,-17.298 v -30.099 h 10.397 v 32.796 c 0,4.901 -0.8,10 -3.496,14.201 C 15.293,-3.098 7.898,0 0,0" /></g><g
           transform="translate(318.04,305.8608)"
           id="g28"><path
             id="path30"
             style="fill:#231f20;fill-opacity:1;fill-rule:nonzero;stroke:none"
             d="m 0,0 c -10.599,0 -18.9,9.1 -18.9,19.501 0,10.798 8.001,19.798 19,19.798 11.299,0 19.197,-8.698 19.197,-19.798 C 19.297,8.796 10.798,0 0,0 M 18.495,40.496 H 18.3 c -4.404,5.601 -11.804,8.298 -18.796,8.298 -16.801,0 -28.803,-12.792 -28.803,-29.397 0,-16.496 12.202,-28.895 28.803,-28.895 7.697,0 14.993,2.904 19.593,9.299 h 0.2 v -7.898 h 9.601 V 65.896 H 18.495 Z" /></g><g
           transform="translate(366.2207,279.2661)"
           id="g32"><path
             id="path34"
             style="fill:#231f20;fill-opacity:1;fill-rule:nonzero;stroke:none"
             d="M 0,0 H 10.799 L 41.397,73.891 H 30.195 L 13.497,30.898 -2.799,73.891 H -13.991 L 8.099,19.596 Z" /></g><g
           transform="translate(437.209,345.1601)"
           id="g36"><path
             id="path38"
             style="fill:#231f20;fill-opacity:1;fill-rule:nonzero;stroke:none"
             d="m 0,0 c 10.801,0 19.501,-8.699 19.501,-19.502 0,-10.794 -8.602,-19.797 -19.501,-19.797 -10.799,0 -19.5,8.902 -19.5,19.701 C -19.5,-8.799 -10.799,0 0,0 m 0,-48.797 c 16.794,0 29.896,13.501 29.896,29.295 0,16.401 -13.7,28.997 -29.896,28.997 -15.999,0 -29.896,-12.496 -29.896,-28.792 0,-16.399 13.596,-29.5 29.896,-29.5" /></g><path
           id="path40"
           style="fill:#231f20;fill-opacity:1;fill-rule:nonzero;stroke:none"
           d="M 475.596,297.764 H 486 v 73.993 h -10.404 z" /><g
           transform="translate(101.0879,316.2905)"
           id="g42"><path
             id="path44"
             style="fill:#231f20;fill-opacity:1;fill-rule:nonzero;stroke:none"
             d="m 0,0 v 27.102 h 17.44 v 9.609 H 0 V 54.48 H -10.268 V 36.711 h -10.008 v -9.609 h 9.59 V 2.535 c 0,-4.969 0.232,-8.375 0.686,-10.133 0.453,-1.759 1.027,-3.198 1.698,-4.281 0.665,-1.084 1.529,-2.074 2.55,-2.943 3.285,-2.885 7.459,-4.354 12.4,-4.354 4.889,0 9.462,1.18 13.608,3.497 v 9.926 C 15.965,-8.278 11.83,-9.562 7.965,-9.562 2.679,-9.562 0,-6.348 0,0" /></g><g
           transform="translate(156.7715,354.0776)"
           id="g46"><path
             id="path48"
             style="fill:#231f20;fill-opacity:1;fill-rule:nonzero;stroke:none"
             d="m 0,0 h -0.704 c -3.712,0 -9.934,0 -15.021,-8.207 l -0.213,-0.34 0.055,7.471 h -10.744 v -54.922 h 10.744 v 28.718 c 0,4.599 1.31,8.632 3.892,11.997 2.582,3.371 5.691,5.077 9.227,5.077 3.217,0 6.759,-1.787 10.527,-5.327 l 5.633,9.392 C 8.815,-1.923 3.25,0 0,0" /></g><g
           transform="translate(266.5732,250.0864)"
           id="g50"><path
             id="path52"
             style="fill:#fc5d00;fill-opacity:1;fill-rule:nonzero;stroke:none"
             d="m 0,0 c -0.662,5.293 -4.797,7.939 -10.585,7.939 -5.456,0 -9.921,-2.646 -11.411,-7.939 z m -22.158,-8.352 c 0.661,-5.043 5.043,-8.683 12.155,-8.683 3.72,0 8.6,1.406 10.914,3.803 l 6.45,-6.367 c -4.298,-4.464 -11.331,-6.616 -17.531,-6.616 -14.056,0 -22.407,8.685 -22.407,21.746 0,12.405 8.434,21.334 21.662,21.334 13.644,0 22.162,-8.434 20.589,-25.22 h -31.832 z" /></g><g
           transform="translate(201.248,265.8696)"
           id="g54"><path
             id="path56"
             style="fill:#fc5d00;fill-opacity:1;fill-rule:nonzero;stroke:none"
             d="M 0,0 H 6.954 V 14.337 H 18 V 0 h 9.564 V -9.287 H 18 v -14.509 c 0,-6.656 3.291,-8.01 8.666,-9.015 l -1.339,-8.937 c -8.962,0 -18.373,3.515 -18.373,15.111 v 17.35 l -6.954,0 z" /></g><g
           transform="translate(319.0615,229.5161)"
           id="g58"><path
             id="path60"
             style="fill:#fc5d00;fill-opacity:1;fill-rule:nonzero;stroke:none"
             d="m 0,0 c -4.198,-3.285 -9.698,-5.395 -15.542,-5.395 -10.702,0 -21.242,7.001 -21.242,21.061 0,13.409 9.612,21.52 21.338,21.52 5.5,0 11.075,-1.808 14.815,-4.821 l -4.591,-7.608 c -2.611,1.784 -5.777,2.812 -8.895,2.812 -6.695,0 -11.515,-4.696 -11.515,-11.626 0,-6.905 4.763,-11.697 11.439,-11.697 3.146,0 6.332,1.081 8.942,2.937 z" /></g><g
           transform="translate(354.4687,224.9487)"
           id="g62"><path
             id="path64"
             style="fill:#fc5d00;fill-opacity:1;fill-rule:nonzero;stroke:none"
             d="m 0,0 v 23.725 c 0,4.921 -2.382,8.158 -7.354,8.158 -5.022,0 -8.589,-3.362 -8.589,-8.436 V 0 h -11.124 v 55.394 h 11.094 V 36.98 c 2.889,3.291 7.336,4.773 11.909,4.773 10.061,0 15.159,-6.729 15.159,-16.848 V 0 Z" /></g></g></g></g></svg>