<svg width="1920" height="290" viewBox="0 0 1920 290" fill="none" xmlns="http://www.w3.org/2000/svg">
<path fill-rule="evenodd" clip-rule="evenodd" d="M594.665 232.488H598.939V223.565C598.939 222.262 598.254 221.025 596.753 221.025C595.252 221.025 594.665 222.458 594.665 223.565V232.488ZM587.128 232.488H591.402V223.565C591.402 222.262 590.717 221.025 589.216 221.025C587.715 221.025 587.128 222.458 587.128 223.565V232.488ZM579.558 232.488H583.833V223.565C583.833 222.262 583.147 221.025 581.646 221.025C580.146 221.025 579.558 222.458 579.558 223.565V232.488ZM572.021 232.488H576.296V223.565C576.296 222.262 575.61 221.025 574.11 221.025C572.609 221.025 572.021 222.458 572.021 223.565V232.488ZM564.485 232.488H568.759V223.565C568.759 222.262 568.074 221.025 566.573 221.025C565.072 221.025 564.485 222.458 564.485 223.565V232.488ZM556.915 232.488H561.189V223.565C561.189 222.262 560.504 221.025 559.003 221.025C557.502 221.025 556.915 222.458 556.915 223.565V232.488ZM549.378 232.488H553.652V223.565C553.652 222.262 552.967 221.025 551.466 221.025C549.965 221.025 549.378 222.458 549.378 223.565V232.488ZM541.809 232.488H546.083V223.565C546.083 222.262 545.398 221.025 543.897 221.025C542.396 221.025 541.809 222.458 541.809 223.565V232.488ZM364.871 232.13H368.134V227.017C368.134 226.268 367.612 225.551 366.47 225.551C365.328 225.551 364.871 226.366 364.871 227.017V232.13ZM316.256 251.93H322.619V242.323C322.619 242.323 322.88 238.741 319.454 238.741C316.485 238.741 316.289 241.509 316.289 242.323V251.93H316.256ZM326.664 251.93H333.027V246.426C333.027 246.426 333.288 242.844 329.862 242.844C326.893 242.844 326.697 245.612 326.697 246.426V251.93H326.664ZM306.077 251.93H312.439V246.426C312.439 246.426 312.7 242.844 309.274 242.844C306.305 242.844 306.109 245.612 306.109 246.426V251.93H306.077ZM291.427 238.676H294.526V233.986C294.526 233.986 294.657 232.227 292.96 232.227C291.492 232.227 291.394 233.595 291.394 233.986V238.676H291.427ZM351.983 192.595H356.257V183.672C356.257 182.369 355.572 181.131 354.071 181.131C352.57 181.131 351.983 182.564 351.983 183.672V192.595ZM359.553 192.595H363.827V183.672C363.827 182.369 363.142 181.131 361.641 181.131C360.14 181.131 359.553 182.564 359.553 183.672V192.595ZM367.09 192.595H371.364V183.672C371.364 182.369 370.679 181.131 369.178 181.131C367.677 181.131 367.09 182.564 367.09 183.672V192.595ZM374.626 192.595H378.901V183.672C378.901 182.369 378.215 181.131 376.715 181.131C375.214 181.131 374.626 182.564 374.626 183.672V192.595ZM382.196 192.595H386.47V183.672C386.47 182.369 385.785 181.131 384.284 181.131C382.783 181.131 382.196 182.564 382.196 183.672V192.595ZM389.733 192.595H394.007V183.672C394.007 182.369 393.322 181.131 391.821 181.131C390.32 181.131 389.733 182.564 389.733 183.672V192.595ZM397.302 192.595H401.577V183.672C401.577 182.369 400.891 181.131 399.391 181.131C397.89 181.131 397.302 182.564 397.302 183.672V192.595ZM404.839 192.595H409.113V183.672C409.113 182.369 408.428 181.131 406.927 181.131C405.427 181.131 404.839 182.564 404.839 183.672V192.595ZM412.409 192.595H416.683V183.672C416.683 182.369 415.998 181.131 414.497 181.131C412.996 181.131 412.409 182.564 412.409 183.672V192.595ZM419.946 192.595H424.22V183.672C424.22 182.369 423.535 181.131 422.034 181.131C420.533 181.131 419.946 182.564 419.946 183.672V192.595ZM306.077 219.983H310.351V211.06C310.351 209.757 309.666 208.519 308.165 208.519C306.664 208.519 306.077 209.952 306.077 211.06V219.983ZM313.646 219.983H317.92V211.06C317.92 209.757 317.235 208.519 315.734 208.519C314.233 208.519 313.646 209.952 313.646 211.06V219.983ZM321.183 219.983H325.457V211.06C325.457 209.757 324.772 208.519 323.271 208.519C321.77 208.519 321.183 209.952 321.183 211.06V219.983ZM328.753 219.983H333.027V211.06C333.027 209.757 332.341 208.519 330.841 208.519C329.34 208.519 328.753 209.952 328.753 211.06V219.983ZM391.071 220.536H396.487V210.864C396.487 209.464 395.606 208.129 393.713 208.129C391.821 208.129 391.071 209.692 391.071 210.864V220.536ZM382.946 220.536H387.123V213.046C387.123 211.971 386.438 210.929 384.969 210.929C383.501 210.929 382.914 212.134 382.914 213.046V220.536H382.946ZM400.402 220.536H404.578V213.046C404.578 211.971 403.893 210.929 402.425 210.929C400.957 210.929 400.369 212.134 400.369 213.046V220.536H400.402ZM410.419 221.09H413.681V215.944C413.681 215.195 413.159 214.479 412.017 214.479C410.875 214.479 410.419 215.293 410.419 215.944V221.09ZM373.876 221.09H377.139V215.944C377.139 215.195 376.617 214.479 375.475 214.479C374.333 214.479 373.876 215.293 373.876 215.944V221.09ZM373.941 232.13H377.204V227.017C377.204 226.268 376.682 225.551 375.54 225.551C374.398 225.551 373.941 226.366 373.941 227.017V232.13ZM383.044 232.13H386.307V227.017C386.307 226.268 385.785 225.551 384.643 225.551C383.501 225.551 383.044 226.366 383.044 227.017V232.13ZM392.147 232.13H395.41V227.017C395.41 226.268 394.888 225.551 393.746 225.551C392.604 225.551 392.147 226.366 392.147 227.017V232.13ZM401.25 232.13H404.513V227.017C404.513 226.268 403.991 225.551 402.849 225.551C401.707 225.551 401.25 226.366 401.25 227.017V232.13ZM410.321 232.13H413.583V227.017C413.583 226.268 413.061 225.551 411.919 225.551C410.777 225.551 410.321 226.366 410.321 227.017V232.13ZM419.424 232.13H422.686V227.017C422.686 226.268 422.164 225.551 421.022 225.551C419.88 225.551 419.424 226.366 419.424 227.017V232.13ZM565.627 199.108H567.519V191.455C567.519 190.348 567.225 189.761 566.54 189.761C565.888 189.761 565.627 190.51 565.627 191.455V199.108ZM568.465 199.108H570.357V191.455C570.357 190.348 570.064 189.761 569.379 189.761C568.726 189.761 568.465 190.51 568.465 191.455V199.108ZM571.304 199.108H573.196V191.455C573.196 190.348 572.902 189.761 572.217 189.761C571.532 189.761 571.304 190.51 571.304 191.455V199.108ZM618.581 288.632H200.397V258.866H231.915V244.7L234.558 215.195C234.558 215.195 233.513 214.935 233.513 214.544C233.513 214.153 234.264 213.437 234.264 213.437V166.574C234.264 166.574 233.677 166.477 233.677 166.053C233.677 165.63 234.362 165.435 234.362 165.435V162.113C234.362 161.82 233.579 161.201 233.122 160.68C232.763 160.257 232.763 159.996 232.763 159.475C232.763 158.954 232.763 158.368 232.665 158.303C232.567 158.238 232.013 157.879 232.306 157.358C232.567 156.837 232.502 156.381 232.502 155.958C232.502 155.502 232.339 154.981 232.339 154.753C232.339 154.493 232.274 154.199 232.959 154.004C233.644 153.809 235.112 153.548 235.112 153.548V132.413C235.112 132.413 234.297 131.045 234.199 130.85C234.101 130.654 234.199 130.361 234.46 130.231C234.721 130.101 234.916 130.068 234.916 130.068L240.757 101.247V99.9771C240.757 99.9771 240.333 99.8142 240.3 99.456C240.235 98.8373 240.789 98.6419 240.789 98.6419V98.2837C240.789 98.2837 240.528 98.2837 240.528 97.958C240.528 97.6323 240.855 97.6975 240.855 97.6975V97.2415C240.855 97.2415 240.594 97.209 240.626 96.8507C240.626 96.5251 241.018 96.5251 241.018 96.5251L241.148 94.4734C241.148 94.4734 240.594 94.3757 240.561 93.8872C240.528 93.4313 240.822 93.0405 240.822 93.0405C240.822 93.0405 240.757 93.529 240.887 93.757C241.018 93.9849 241.279 93.9849 241.279 93.9849C241.279 93.9849 241.54 93.9849 241.67 93.757C241.801 93.529 241.736 93.0405 241.736 93.0405C241.736 93.0405 242.029 93.3988 241.997 93.8872C241.964 94.4083 241.409 94.4734 241.409 94.4734L241.54 96.5251C241.54 96.5251 241.899 96.5576 241.931 96.8507C241.931 97.209 241.703 97.2415 241.703 97.2415V97.6975C241.703 97.6975 242.029 97.6323 242.029 97.958C242.029 98.2837 241.768 98.2837 241.768 98.2837V98.6419C241.768 98.6419 242.323 98.8047 242.258 99.456C242.225 99.8142 241.801 99.9771 241.801 99.9771V101.247L247.641 130.068C247.641 130.068 247.869 130.133 248.098 130.231C248.359 130.361 248.457 130.654 248.359 130.85C248.261 131.045 247.445 132.413 247.445 132.413V153.548C247.445 153.548 248.946 153.809 249.599 154.004C250.284 154.199 250.219 154.493 250.219 154.753C250.219 155.014 250.055 155.535 250.055 155.958C250.055 156.414 249.99 156.837 250.251 157.358C250.512 157.879 249.99 158.238 249.892 158.303C249.794 158.368 249.794 158.954 249.794 159.475C249.794 159.996 249.762 160.257 249.436 160.68C248.979 161.201 248.196 161.82 248.196 162.113V165.435C248.196 165.435 248.881 165.598 248.881 166.053C248.881 166.509 248.294 166.574 248.294 166.574V213.437C248.294 213.437 249.044 214.121 249.044 214.544C249.044 214.935 248 215.195 248 215.195L249.99 237.275L250.512 232.879C250.512 232.879 249.892 232.651 249.827 232.195C249.794 231.934 250.414 231.674 250.414 231.674V193.213C250.414 193.213 250.186 193.051 250.186 192.758C250.186 192.497 250.545 192.367 250.545 192.367V189.631C250.545 189.631 249.24 188.426 249.24 188.231V186.831C249.24 186.831 248.979 186.244 249.011 186.049C249.077 185.886 249.272 185.463 249.272 185.463V184.29C249.272 184.29 249.011 183.737 249.175 183.606C249.338 183.444 251.165 183.118 251.165 183.118V166.216C251.165 166.216 250.708 165.63 250.61 165.37C250.512 165.109 250.414 164.718 250.447 164.686C250.512 164.621 251.132 164.49 251.132 164.49L255.896 139.089V137.884C255.896 137.884 255.472 137.786 255.537 137.363C255.57 136.972 255.961 136.939 255.961 136.939V136.679C255.961 136.679 255.7 136.679 255.733 136.418C255.765 136.223 256.059 136.288 256.059 136.288V135.93C256.059 135.93 255.896 135.897 255.928 135.702C255.961 135.572 256.157 135.604 256.157 135.604L256.353 133.032L256.548 135.604C256.548 135.604 256.744 135.572 256.777 135.702C256.809 135.897 256.646 135.93 256.646 135.93V136.288C256.646 136.288 256.94 136.223 256.972 136.418C257.005 136.711 256.744 136.679 256.744 136.679V136.939C256.744 136.939 257.136 137.005 257.168 137.363C257.201 137.786 256.809 137.884 256.809 137.884V139.089L261.573 164.49C261.573 164.49 262.193 164.653 262.258 164.686C262.323 164.751 262.193 165.142 262.095 165.37C261.997 165.63 261.54 166.216 261.54 166.216V183.118C261.54 183.118 263.367 183.476 263.531 183.606C263.694 183.769 263.433 184.29 263.433 184.29V185.463C263.433 185.463 263.628 185.854 263.694 186.049C263.759 186.244 263.465 186.831 263.465 186.831V188.231C263.465 188.394 262.16 189.631 262.16 189.631V192.367C262.16 192.367 262.519 192.497 262.519 192.758C262.519 193.018 262.291 193.213 262.291 193.213V231.674C262.291 231.674 262.911 231.934 262.878 232.195C262.813 232.651 262.193 232.879 262.193 232.879L263.074 242.909L268.523 241.118H271.981L276.418 242.714L283.433 240.174V226.984L282.585 226.235V225.649H283.694V222.36H286.37L286.761 223.142L287.479 223.076V224.77L288.751 224.314V215.749L288.621 215.13H289.208C289.208 215.13 289.698 213.6 290.937 212.883C291.753 212.427 292.862 212.199 292.862 212.199V211.678H293.319V211.32C293.319 211.32 293.091 211.385 293.091 211.125C293.091 210.864 293.385 210.832 293.385 210.832L293.613 209.041L293.809 210.832C293.809 210.832 294.102 210.832 294.102 211.125C294.102 211.418 293.874 211.32 293.874 211.32V211.678H294.331V212.199C294.331 212.199 295.473 212.395 296.256 212.883C297.496 213.6 298.018 215.098 298.018 215.098L299.649 214.414V212.037L300.628 211.45V208.813C300.628 208.813 301.77 207.477 303.271 207.542C304.347 207.608 305.718 206.11 306.86 205.198C309.046 203.504 311.688 202.137 316.713 200.671C321.607 199.271 332.57 197.805 332.57 197.805L333.059 188.524L333.418 197.642L335.115 197.708V192.497H335.702V191.748L336.191 190.999H337.17L338.508 186.7L337.758 185.365C337.758 185.365 340.694 183.02 342.717 181.848C344.74 180.643 349.536 178.07 349.536 178.07C349.536 178.07 355.213 169.082 364.545 163.285C370.711 159.443 384.904 156.87 384.904 156.87V155.111C384.904 153.743 386.829 152.994 387.155 152.604C387.449 152.245 387.612 150.91 387.612 150.91C387.612 150.91 387.221 150.813 387.221 150.259C387.221 149.738 387.808 149.705 387.808 149.705V148.631C387.808 148.631 387.384 148.598 387.384 148.305C387.384 148.012 387.906 148.012 387.906 148.012V147.035C387.906 147.035 387.253 147.035 387.253 146.449C387.253 145.797 387.938 145.765 387.938 145.765V144.592C387.938 144.592 387.677 144.592 387.677 144.397C387.677 144.234 387.938 144.202 387.938 144.202V143.518C387.938 143.518 387.677 143.55 387.677 143.355C387.677 143.192 387.938 143.16 387.938 143.16V142.248C387.938 142.248 387.677 142.183 387.677 141.922C387.677 141.662 387.971 141.564 387.971 141.564L388.134 140.619L388.297 141.564C388.297 141.564 388.591 141.662 388.591 141.922C388.591 142.183 388.33 142.248 388.33 142.248V143.16C388.33 143.16 388.591 143.192 388.591 143.355C388.591 143.55 388.33 143.518 388.33 143.518V144.202C388.33 144.202 388.591 144.234 388.591 144.397C388.591 144.592 388.33 144.592 388.33 144.592V145.765C388.33 145.765 389.015 145.797 389.015 146.449C389.015 147.035 388.363 147.035 388.363 147.035V148.012C388.363 148.012 388.885 148.012 388.885 148.305C388.885 148.598 388.46 148.631 388.46 148.631V149.705C388.46 149.705 389.048 149.738 389.048 150.259C389.048 150.813 388.656 150.91 388.656 150.91C388.656 150.91 388.819 152.213 389.113 152.604C389.407 152.962 391.364 153.743 391.364 155.111V156.87C391.364 156.87 405.557 159.475 411.724 163.285C421.055 169.082 426.732 178.07 426.732 178.07C426.732 178.07 431.496 180.643 433.551 181.848C435.574 183.053 438.511 185.365 438.511 185.365L437.76 186.7L438.641 189.534C438.641 189.534 440.273 187.124 444.188 187.124C448.103 187.124 449.669 190.934 449.669 190.934H450.974V191.618L449.995 192.302V202.071L454.204 202.951V204.742L461.643 208.943L468.854 211.288L472.965 212.232L474.955 212.395L476.097 212.851V213.111H475.216V213.893H476.75V214.577L475.999 215.228V218.257L477.239 218.908L479.36 219.071L480.306 220.015L479.556 220.569V223.435C479.556 223.435 481.122 222.686 482.851 222.295C484.58 221.872 485.2 221.969 485.2 221.969L485.298 219.266L485.396 221.969C485.396 221.969 486.016 221.872 487.745 222.295C489.474 222.686 491.008 223.435 491.008 223.435C491.008 223.435 491.563 225.128 491.921 225.779C492.28 226.431 492.966 227.31 492.966 227.31V229.98L502.199 231.609L505.038 232.358L504.842 194.418C504.842 194.418 502.493 192.464 502.493 192.106V189.403C502.493 189.143 504.94 188.752 504.94 188.752V174.455C504.94 174.455 504.352 174.227 504.385 174.13C504.418 174.032 507.256 148.272 507.256 148.272V147.426C507.256 147.426 506.963 147.491 506.93 147.133C506.93 146.807 507.191 146.774 507.191 146.774L507.224 146.123C507.224 146.123 506.963 146.123 506.963 145.895C506.93 145.537 507.256 145.569 507.256 145.569L507.289 144.755C507.289 144.755 506.897 144.755 506.897 144.364C506.897 143.876 507.322 143.909 507.322 143.909L507.517 141.368L507.713 143.909C507.713 143.909 508.137 143.876 508.137 144.364C508.137 144.755 507.746 144.755 507.746 144.755L507.778 145.569C507.778 145.569 508.105 145.537 508.072 145.895C508.072 146.123 507.811 146.123 507.811 146.123L507.844 146.774C507.844 146.774 508.137 146.774 508.105 147.133C508.105 147.491 507.778 147.426 507.778 147.426V148.272C507.778 148.272 510.65 174.032 510.65 174.13C510.682 174.227 510.095 174.455 510.095 174.455V188.752C510.095 188.752 512.542 189.11 512.542 189.403V192.106C512.542 192.464 510.193 194.418 510.193 194.418L512.705 242.323L516.783 245.71V237.959L527.224 234.898V176.768C527.224 176.768 526.343 173.837 525.919 173.348C525.495 172.892 524.842 172.306 524.842 171.948C524.842 171.622 524.777 170.58 524.777 170.58C524.777 170.58 524.451 170.482 524.451 170.059V168.073C524.451 167.91 524.484 167.454 525.495 167.193C526.539 166.933 527.877 166.77 527.877 166.77V151.855C527.877 151.855 527.55 151.822 527.55 151.627C527.55 151.431 527.812 151.268 527.812 151.268V148.859L527.224 148.598V148.077L527.812 147.914L531.042 116.814V115.869C531.042 115.869 530.715 115.902 530.715 115.544C530.715 115.153 531.074 115.153 531.074 115.153V114.208C531.074 114.208 530.715 114.208 530.715 113.915C530.715 113.557 531.172 113.557 531.172 113.557V112.645C531.172 112.645 530.748 112.678 530.715 112.157C530.715 111.636 531.205 111.636 531.205 111.636V110.463C531.205 110.463 530.976 110.431 531.009 110.105C531.042 109.812 531.4 109.845 531.4 109.845L531.629 108.151L531.825 109.845C531.825 109.845 532.184 109.812 532.216 110.105C532.249 110.431 532.02 110.463 532.02 110.463V111.636C532.02 111.636 532.51 111.636 532.51 112.157C532.51 112.678 532.053 112.645 532.053 112.645V113.557C532.053 113.557 532.51 113.557 532.51 113.915C532.51 114.208 532.151 114.208 532.151 114.208V115.153C532.151 115.153 532.51 115.153 532.51 115.544C532.51 115.869 532.184 115.869 532.184 115.869V116.814L535.414 147.914L536.001 148.077V148.598L535.414 148.859V151.268C535.414 151.268 535.675 151.431 535.675 151.627C535.675 151.822 535.348 151.855 535.348 151.855V166.77C535.348 166.77 536.686 166.933 537.73 167.193C538.774 167.454 538.774 167.877 538.774 168.073V170.059C538.774 170.45 538.448 170.58 538.448 170.58C538.448 170.58 538.383 171.622 538.383 171.948C538.383 172.274 537.73 172.86 537.306 173.348C536.882 173.804 536.686 176.768 536.686 176.768V218.126C536.686 218.126 543.179 210.245 550.814 206.533C558.612 202.723 563.538 202.169 563.538 202.169V188.491L562.592 188.394V187.417L564.028 186.863H564.974C564.974 186.863 565.627 182.597 569.444 182.597C573.261 182.597 573.914 186.863 573.914 186.863H574.86L576.296 187.417V188.394L575.349 188.491V202.169C575.349 202.169 580.57 202.169 588.074 206.533C601.092 214.056 608.629 227.961 608.629 227.961V239.262L618.581 242.649V288.632Z" fill="#E4E4E4"/>
<path fill-rule="evenodd" clip-rule="evenodd" d="M690.785 171.851C690.785 171.851 688.142 172.339 688.142 174.489V179.992C689.937 180.058 691.666 180.123 693.362 180.22V174.391C693.362 172.893 691.959 172.144 690.785 171.851ZM674.602 171.395C674.602 171.395 671.959 171.884 671.959 174.033V179.764C672.807 179.764 673.688 179.764 674.569 179.764C675.45 179.764 676.298 179.764 677.179 179.764V173.903C677.212 172.437 675.776 171.688 674.602 171.395ZM658.451 171.851C658.451 171.851 655.808 172.339 655.808 174.489V180.188C657.505 180.09 659.234 180.025 661.029 179.96V174.359C661.029 172.893 659.626 172.144 658.451 171.851ZM695.059 124.272C696.56 124.37 698.028 124.435 699.431 124.565V117.498C699.431 116.359 698.354 115.772 697.245 115.772C695.679 115.772 695.059 117.01 695.059 117.498V124.272ZM673.231 123.751H674.602C675.613 123.751 676.625 123.751 677.603 123.751V116.652C677.603 115.512 676.527 114.926 675.417 114.926C673.851 114.926 673.231 116.163 673.231 116.652V123.751ZM649.381 124.565C650.784 124.467 652.219 124.37 653.753 124.272V117.433C653.753 116.293 652.676 115.707 651.567 115.707C650.001 115.707 649.381 116.945 649.381 117.433V124.565ZM684.162 123.849C685.662 123.881 687.098 123.914 688.534 123.979V116.912C688.534 115.772 687.457 115.186 686.348 115.186C684.781 115.186 684.162 116.424 684.162 116.912V123.849ZM661.322 123.946C662.758 123.914 664.194 123.849 665.695 123.816V116.912C665.695 115.772 664.618 115.186 663.508 115.186C661.942 115.186 661.322 116.424 661.322 116.912V123.946ZM695.059 152.214C696.56 152.311 698.028 152.376 699.431 152.507V145.44C699.431 144.3 698.354 143.714 697.245 143.714C695.679 143.714 695.059 144.951 695.059 145.44V152.214ZM673.231 151.66H674.602C675.613 151.66 676.625 151.66 677.603 151.66V144.561C677.603 143.421 676.527 142.835 675.417 142.835C673.851 142.835 673.231 144.072 673.231 144.561V151.66ZM649.381 152.507C650.784 152.409 652.219 152.311 653.753 152.214V145.375C653.753 144.235 652.676 143.649 651.567 143.649C650.001 143.649 649.381 144.886 649.381 145.375V152.507ZM684.162 151.79C685.662 151.823 687.098 151.855 688.534 151.921V144.854C688.534 143.714 687.457 143.128 686.348 143.128C684.781 143.128 684.162 144.365 684.162 144.854V151.79ZM661.322 151.888C662.758 151.855 664.194 151.79 665.695 151.758V144.854C665.695 143.714 664.618 143.128 663.508 143.128C661.942 143.128 661.322 144.365 661.322 144.854V151.888ZM707.196 288.633H641.616V160.16C641.616 160.16 641.159 159.997 641.159 159.346C641.159 158.955 641.583 158.662 641.583 158.662C641.583 158.662 640.996 157.913 640.245 157.261C639.658 156.74 639.005 156.284 638.679 155.568C638.353 154.852 638.712 154.233 639.299 153.94C639.854 153.647 642.04 153.321 642.04 153.321V132.186C642.04 131.86 641.681 131.502 641.648 131.209C641.616 130.916 641.811 130.557 641.811 130.557C641.811 130.557 641.583 130.362 641.322 130.232C641.094 130.101 639.462 129.417 639.397 129.255C639.332 129.092 639.005 127.236 638.875 126.715C638.744 126.193 639.038 126.226 639.43 126.031C639.821 125.835 641.583 125.575 641.583 125.575C641.583 125.575 641.289 122.448 641.289 122.058C641.257 121.602 645.89 121.439 645.89 121.439V113.493C645.89 113.493 643.573 112.353 643.541 111.669C643.508 110.985 644.454 110.464 645.596 110.204C646.705 109.976 651.404 109.65 651.404 109.65L657.472 93.1064L657.701 84.7044L660.441 85.0301L673.949 44.2249C673.949 44.2249 672.22 43.9644 672.187 42.1732C672.155 40.3821 673.851 39.9588 673.851 39.9588V38.1676C673.851 37.9397 672.775 36.865 672.807 36.6696C672.84 36.4742 673.362 30.5472 673.395 30.3192C673.427 30.1238 674.014 30.1238 674.014 30.1238V29.4725C674.014 29.4725 673.688 29.4074 673.688 28.9189C673.688 28.463 674.047 28.2676 674.047 28.2676V27.8117C674.047 27.8117 673.819 27.714 673.819 27.4209C673.819 27.1278 674.08 26.9649 674.08 26.9649V20.5494C674.08 20.2563 674.308 20.2563 674.504 20.2563C674.7 20.2563 674.895 20.2563 674.895 20.5494V26.9649C674.895 26.9649 675.156 27.1278 675.156 27.4209C675.156 27.714 674.928 27.8117 674.928 27.8117V28.2676C674.928 28.2676 675.287 28.463 675.287 28.9189C675.287 29.3748 674.961 29.4725 674.961 29.4725V30.1238C674.961 30.1238 675.515 30.1238 675.581 30.3192C675.613 30.5146 676.135 36.4416 676.168 36.6696C676.201 36.865 675.124 37.9722 675.124 38.1676V39.9588C675.124 39.9588 676.82 40.3821 676.788 42.1732C676.755 43.9644 675.026 44.2249 675.026 44.2249L688.534 85.0301L691.274 84.7044L691.503 93.1064L697.571 109.65C697.571 109.65 702.27 109.976 703.379 110.204C704.488 110.432 705.467 110.985 705.435 111.669C705.402 112.353 703.085 113.493 703.085 113.493V121.439C703.085 121.439 707.718 121.602 707.686 122.058C707.653 122.448 707.392 125.575 707.392 125.575C707.392 125.575 709.121 125.803 709.546 126.031C709.937 126.226 710.231 126.193 710.1 126.715C709.97 127.236 709.643 129.092 709.578 129.255C709.513 129.417 707.882 130.101 707.653 130.232C707.425 130.362 707.164 130.557 707.164 130.557C707.164 130.557 707.36 130.916 707.327 131.209C707.294 131.502 706.935 131.86 706.935 132.186V153.321C706.935 153.321 709.121 153.647 709.676 153.94C710.231 154.233 710.59 154.819 710.296 155.568C709.97 156.284 709.317 156.74 708.73 157.261C707.979 157.913 707.392 158.662 707.392 158.662C707.392 158.662 707.784 158.955 707.816 159.346C707.816 159.997 707.36 160.16 707.36 160.16V288.633H707.196Z" fill="#E4E4E4"/>
<path d="M1026.32 218.289C1004.53 212.46 979.438 200.606 950.726 183.411C919.502 164.718 892.617 143.648 873.53 127.268C862.535 117.823 854.117 109.942 848.962 104.927V127.398C865.015 140.066 885.7 155.73 909.322 172.111C952.717 202.234 989.129 215.717 1024.01 218.094C1024.79 218.192 1025.57 218.257 1026.32 218.289ZM1138.1 188.166V173.316C1136.64 175.042 1134.61 177.321 1132.1 179.894C1126.2 185.919 1117.55 193.702 1106.46 200.801C1089.26 211.776 1070.31 218.745 1046.23 220.178C1050.73 220.602 1055.04 220.699 1059.18 220.471C1086.98 218.876 1105.18 211.092 1123.59 199.303C1128.28 196.242 1133.28 192.399 1138.1 188.166ZM1141.4 176.475V185.105C1142.22 184.356 1143 183.574 1143.78 182.793C1142.9 180.448 1142.09 178.298 1141.4 176.475ZM1150.57 175.595H1143.03C1143.65 177.256 1144.4 179.243 1145.22 181.392C1147.08 179.471 1148.87 177.549 1150.57 175.595ZM1153.31 200.769H1155.3V175.595H1152.85C1151.55 177.126 1149.98 178.917 1148.15 180.839C1147.44 181.588 1146.69 182.402 1145.87 183.216C1148.09 188.85 1150.76 195.428 1153.31 200.769ZM1141.4 200.769H1151.29C1148.97 195.754 1146.52 189.859 1144.5 184.616C1143.52 185.593 1142.48 186.57 1141.4 187.58V200.769ZM841.947 228.222C833.594 229.004 825.372 229.85 817.281 230.73V236.396H841.947V228.222ZM1155.3 231.641C1150.73 231.218 1146.07 230.795 1141.4 230.371V234.377H1155.3V231.641ZM1167.14 230.078C1172.49 230.664 1177.78 231.283 1183 231.902C1181.07 227.864 1176.34 217.833 1171.12 207.184C1166.36 197.447 1161.27 183.802 1158.66 176.507V211.711C1162.35 219.494 1165.84 227.18 1167.14 230.078ZM1158.63 229.134C1160.78 229.362 1162.9 229.59 1165.02 229.818C1163.75 226.985 1161.34 221.709 1158.63 215.945V229.134ZM1141.4 227.408C1146.1 227.864 1150.73 228.32 1155.3 228.808V209.008C1154.81 208.031 1154.35 207.054 1153.86 206.11H1141.37V227.408H1141.4ZM1066.78 221.676C1091.55 223.142 1115.4 224.965 1138.1 227.115V190.608C1134.09 194.125 1129.56 197.643 1124.56 200.834C1107.63 211.646 1090.83 219.169 1066.78 221.676ZM848.995 220.146C889.224 218.322 932.423 217.638 977.318 218.322C990.662 218.517 1003.88 218.876 1016.89 219.332C983.745 215.652 949.03 201.876 908.311 173.641C885.178 157.586 864.917 142.28 848.995 129.743V220.146ZM817.281 221.839C825.372 221.351 833.594 220.895 841.947 220.471V173.446H817.281V221.839ZM703.738 232.912C711.666 231.804 719.954 230.73 728.502 229.688C731.08 227.766 735.321 224.444 740.509 219.787C768.242 194.809 785.73 164.262 800.249 130.264C805.535 117.921 808.928 108.249 810.233 104.439V95.3203H817.281V101.443H841.947V95.3203H848.995V102.355C853.954 107.207 862.829 115.609 874.737 125.867C893.759 142.215 920.579 163.188 951.673 181.816C984.43 201.42 1012.26 213.958 1035.72 218.582C1064.6 218.745 1086.16 211.548 1105.48 199.238C1116.31 192.334 1129.65 181.197 1138.1 170.515V168.008H1141.43V171.134L1141.89 172.437H1153.18C1153.93 171.492 1154.65 170.58 1155.33 169.636V168.008H1158.66V170.971C1159.38 173.088 1166.36 193.246 1172.79 206.338C1178.53 218.094 1183.72 229.036 1185.15 232.13C1192.95 233.074 1200.55 234.019 1207.96 235.028V237.634C1192.36 235.549 1175.89 233.661 1158.66 231.967V289.967H1155.33V239.978H1141.43V289.967H1138.1V230.111C1089.07 225.91 1034.64 223.337 977.318 222.425C932.39 221.709 889.224 223.988 848.995 227.603V290H841.947V246.719H817.281V289.967H810.233V231.511C770.722 235.973 734.766 241.314 703.705 245.677V232.912H703.738ZM835.422 116.553C836.825 112.841 837.869 109.91 838.521 108.021H825.079C828.015 110.496 831.474 113.362 835.422 116.553ZM817.281 157.749C821.359 149.738 825.144 141.531 828.7 133.195C831.082 127.593 833.105 122.545 834.704 118.344C829.777 114.371 825.601 110.887 822.175 108.021H817.281V157.749ZM764.816 225.877C766.219 224.737 767.72 223.467 769.286 222.067C786.154 207.217 799.303 189.729 810.233 170.743V109.975C808.439 114.925 805.633 122.318 801.913 131.013C794.996 147.23 784.849 168.105 772.027 186.733C757.214 208.292 740.378 222.816 732.091 229.297C742.564 228.059 753.495 226.919 764.816 225.877ZM810.266 174.26C807.232 179.438 803.969 184.616 800.543 189.631C789.189 206.142 776.856 218.127 768.046 225.584C781.587 224.347 795.682 223.239 810.266 222.295V174.26ZM836.237 119.549C834.671 123.653 832.714 128.505 830.43 133.911C826.873 142.215 822.469 151.757 817.313 161.592V163.123H841.98V124.174C839.957 122.578 838.032 121.047 836.237 119.549ZM840.446 108.021C839.794 109.975 838.586 113.362 836.922 117.758C838.521 119.061 840.218 120.429 841.98 121.829V108.021H840.446Z" fill="#E4E4E4"/>
<path fill-rule="evenodd" clip-rule="evenodd" d="M166.628 46.6666V258.769H169.14V47.6762L166.628 46.6666ZM174.393 49.7604V258.769H176.905V50.7699L174.393 49.7604ZM151.097 40.4791V258.769H153.609V41.4886L151.097 40.4791ZM158.862 43.5728V258.769H161.375V44.5824L158.862 43.5728ZM96.8704 288.632V264.924C96.8704 264.924 116.708 254.047 117.719 240.532C118.829 225.356 128.062 35.3011 128.062 35.3011L136.154 30.7744L141.08 32.7609L144.147 31.2955L181.734 47.3505C181.734 47.3505 186.954 238.122 186.954 240.532C186.954 257.955 202.876 258.769 202.876 258.769H255.863V261.276C255.863 261.276 243.954 261.341 241.703 268.473C240.202 273.163 237.494 288.664 237.494 288.664H96.8704V288.632Z" fill="#E4E4E4"/>
<path d="M1678.05 76.8231V258.639H1690.29V76.8231H1678.05ZM1708.66 54.4503V68.6165H1713.58V54.4503H1708.66ZM1654.79 54.4503V68.6165H1659.72V54.4503H1654.79ZM1663.76 54.4503V68.6165H1668.69V54.4503H1663.76ZM1672.74 54.4503V68.6165H1677.66V54.4503H1672.74ZM1681.71 54.4503V68.6165H1686.63V54.4503H1681.71ZM1690.68 54.4503V68.6165H1695.61V54.4503H1690.68ZM1699.65 54.4503V68.6165H1704.58V54.4503H1699.65ZM1701.35 76.8231V258.639H1713.58V76.8231H1701.35ZM1654.79 76.8231V258.639H1667.03V76.8231H1654.79ZM1653.03 46.2111C1655.48 31.6541 1667.97 20.484 1683.14 20.0606L1684.19 0L1685.23 20.0606C1700.27 20.6143 1712.61 31.7193 1715.02 46.1785H1723.05V288.469H1645.33V46.1785H1653.03V46.2111Z" fill="#E4E4E4"/>
<path d="M1758.55 250.562V258.638H1765.04V250.562H1758.55ZM1748.14 250.562V258.638H1754.63V250.562H1748.14ZM1737.73 250.562V258.638H1744.22V250.562H1737.73ZM1768.95 240.336V248.413H1775.45V240.336H1768.95ZM1758.55 240.336V248.413H1765.04V240.336H1758.55ZM1748.14 240.336V248.413H1754.63V240.336H1748.14ZM1737.73 240.336V248.413H1744.22V240.336H1737.73ZM1768.95 230.078V238.154H1775.45V230.078H1768.95ZM1758.55 230.078V238.154H1765.04V230.078H1758.55ZM1748.14 230.078V238.154H1754.63V230.078H1748.14ZM1737.73 230.078V238.154H1744.22V230.078H1737.73ZM1768.95 219.82V227.896H1775.45V219.82H1768.95ZM1758.55 219.82V227.896H1765.04V219.82H1758.55ZM1748.14 219.82V227.896H1754.63V219.82H1748.14ZM1737.73 219.82V227.896H1744.22V219.82H1737.73ZM1768.95 209.594V217.67H1775.45V209.594H1768.95ZM1758.55 209.594V217.67H1765.04V209.594H1758.55ZM1748.14 209.594V217.67H1754.63V209.594H1748.14ZM1737.73 209.594V217.67H1744.22V209.594H1737.73ZM1768.95 199.336V207.412H1775.45V199.336H1768.95ZM1758.55 199.336V207.412H1765.04V199.336H1758.55ZM1748.14 199.336V207.412H1754.63V199.336H1748.14ZM1737.73 199.336V207.412H1744.22V199.336H1737.73ZM1768.95 189.077V197.154H1775.45V189.077H1768.95ZM1758.55 189.077V197.154H1765.04V189.077H1758.55ZM1748.14 189.077V197.154H1754.63V189.077H1748.14ZM1737.73 189.077V197.154H1744.22V189.077H1737.73ZM1768.95 178.819V186.896H1775.45V178.819H1768.95ZM1758.55 178.819V186.896H1765.04V178.819H1758.55ZM1748.14 178.819V186.896H1754.63V178.819H1748.14ZM1737.73 178.819V186.896H1744.22V178.819H1737.73ZM1768.95 168.593V176.67H1775.45V168.593H1768.95ZM1758.55 168.593V176.67H1765.04V168.593H1758.55ZM1748.14 168.593V176.67H1754.63V168.593H1748.14ZM1737.73 168.593V176.67H1744.22V168.593H1737.73ZM1768.99 250.562V258.638H1775.48V250.562H1768.99ZM1781.51 161.983V288.534H1731.69V105.513L1781.51 161.983Z" fill="#E4E4E4"/>
<path d="M90.6386 278.927H56.2821V288.631H90.6386V278.927Z" fill="#E4E4E4"/>
<path d="M86.9191 278.927H60.0016V288.631H86.9191V278.927Z" fill="#E4E4E4"/>
<path d="M26.9175 278.927H0V288.631H26.9175V278.927Z" fill="#E4E4E4"/>
<path d="M686.413 264.924H107.181H97.0662H0V288.632H686.413V264.924Z" fill="#E4E4E4"/>
<path d="M1882.85 251.768H1833.07V288.502H1882.85V251.768Z" fill="#E4E4E4"/>
<path d="M1840.47 237.146H1790.68V288.502H1840.47V237.146Z" fill="#E4E4E4"/>
<path d="M1236.44 186.115V202.854H1241.86V186.115H1236.44ZM1221.7 161.365H1224.86V157.099C1224.86 156.545 1224.53 155.503 1223.16 155.503C1222.32 155.503 1221.63 156.187 1221.63 157.099C1221.66 158.369 1221.7 161.365 1221.7 161.365ZM1300.26 252.777V258.118H1304.08V252.777H1300.26ZM1286.92 268.67V278.732H1291.81V268.67H1286.92ZM1295.99 268.67V278.732H1300.88V268.67H1295.99ZM1305.09 268.67V278.732H1309.99V268.67H1305.09ZM1214.16 268.67V278.732H1219.05V268.67H1214.16ZM1223.26 268.67V278.732H1228.16V268.67H1223.26ZM1232.33 268.67V278.732H1237.23V268.67H1232.33ZM1258.21 268.67V281.891H1266.92V268.67H1258.21ZM1221.7 219.397H1224.86V215.131C1224.86 214.577 1224.53 213.535 1223.16 213.535C1222.32 213.535 1221.63 214.219 1221.63 215.131C1221.66 216.401 1221.7 219.397 1221.7 219.397ZM1222.45 186.115V202.919H1229.72V186.115H1222.45ZM1210.28 186.115V202.854H1215.69V186.115H1210.28ZM1314.98 258.151V288.535H1314.78H1314.03H1204.5V266.683L1202.61 266.423L1204.47 258.704V252.321L1206.46 250.4V237.504L1205.58 236.462V235.224L1206.36 234.606V224.022L1205.58 223.045V221.514L1206.75 220.505V213.698L1196.77 205.361H1196.05V204.059H1196.67V197.773L1201.04 197.155H1204.79V181.881H1203.88L1203.91 181.263L1205.35 181.002V179.992C1205.35 179.797 1203.52 178.853 1203.52 178.853V178.201C1203.52 178.201 1205.51 177.583 1206.07 177.289C1206.62 177.029 1206.23 175.726 1207.11 172.111C1208.02 168.334 1210.05 166.673 1211.52 165.012C1212.59 163.807 1214.26 161.69 1214.26 161.69V157.522C1214.26 157.196 1214.45 156.903 1214.65 156.903H1216.51C1216.51 156.903 1216.74 156.056 1216.83 155.666C1216.93 155.275 1217.26 153.321 1217.26 153.321L1214.81 152.67L1213.57 151.888V151.139H1214.35V145.766L1219.09 144.398H1222.25V140.75L1225.22 138.569L1225.42 86.5932C1225.42 86.5932 1225.25 86.3978 1225.06 86.1373C1224.86 85.8768 1224.8 85.486 1224.8 85.486H1224.47V84.8021H1224.21V83.7274C1224.21 83.7274 1223.49 83.2715 1223.49 82.3922C1223.49 81.2524 1224.37 80.9267 1224.37 80.9267V80.4382L1225.35 79.3636V78.8751C1225.35 78.8751 1225.25 78.8751 1224.99 78.8099C1224.66 78.7448 1224.66 78.4517 1224.73 77.9307C1224.76 77.4747 1225.22 72.5898 1225.22 72.2968C1225.22 72.0037 1225.55 71.9385 1225.55 71.9385V70.5382C1225.38 70.5056 1225.32 70.3428 1225.35 70.1148C1225.38 69.8869 1225.68 63.8296 1225.68 63.6016C1225.71 63.3737 1225.9 63.3085 1225.9 63.3085V62.8526C1225.9 62.8526 1225.42 62.8201 1225.45 62.2664C1225.48 61.8105 1225.94 61.7779 1225.94 61.7779L1226.2 59.9868L1226.46 61.7779C1226.46 61.7779 1226.92 61.8105 1226.95 62.2664C1226.98 62.8201 1226.49 62.8526 1226.49 62.8526V63.3085C1226.49 63.3085 1226.72 63.3737 1226.72 63.6016C1226.75 63.8296 1227.05 69.8869 1227.05 70.1148C1227.08 70.3428 1227.01 70.4731 1226.85 70.5382V71.9385C1226.85 71.9385 1227.18 72.0037 1227.18 72.2968C1227.18 72.5898 1227.63 77.4747 1227.67 77.9307C1227.7 78.4517 1227.73 78.7448 1227.41 78.8099C1227.14 78.8751 1227.05 78.8751 1227.05 78.8751V79.3636L1228.03 80.4382V80.9267C1228.03 80.9267 1228.91 81.2524 1228.91 82.3922C1228.91 83.2715 1228.19 83.7274 1228.19 83.7274V84.8021H1227.93V85.486H1227.6C1227.6 85.486 1227.54 85.8768 1227.34 86.1373C1227.14 86.3978 1226.98 86.5932 1226.98 86.5932L1227.18 138.569L1230.15 140.75V144.398H1233.31L1238.04 145.766V151.139H1238.83V151.855L1237.59 152.637L1235.14 153.288C1235.14 153.288 1235.46 155.275 1235.56 155.633C1235.66 156.024 1235.89 156.871 1235.89 156.871H1237.75C1237.94 156.871 1238.14 157.164 1238.14 157.489V161.658C1238.14 161.658 1239.8 163.775 1240.88 164.98C1242.35 166.64 1244.37 168.301 1245.29 172.079C1246.17 175.694 1245.77 176.996 1246.33 177.257C1246.88 177.517 1248.87 178.169 1248.87 178.169V178.82C1248.87 178.82 1247.05 179.764 1247.05 179.96V180.969L1248.48 181.23L1248.52 181.849H1247.6V197.122H1251.35L1255.73 197.741V204.026H1256.35V205.329H1255.63L1245.64 213.666V220.505L1246.82 221.514V223.045L1246.04 224.022V234.606L1246.82 235.224V236.462L1245.94 237.504H1305.97L1309.43 247.371H1311.26L1309.53 249.097V258.151H1314.98Z" fill="#E4E4E4"/>
<path d="M1498.93 218.354H1501.08V214.446C1501.08 213.893 1500.72 213.339 1499.97 213.339C1499.22 213.339 1498.93 213.958 1498.93 214.446V218.354ZM1494.43 218.354H1496.58V214.446C1496.58 213.893 1496.22 213.339 1495.47 213.339C1494.72 213.339 1494.43 213.958 1494.43 214.446V218.354ZM1517.04 218.354H1519.19V214.446C1519.19 213.893 1518.83 213.339 1518.08 213.339C1517.33 213.339 1517.04 213.958 1517.04 214.446V218.354ZM1504.15 196.405H1506.83V191.227C1506.83 190.478 1506.4 189.761 1505.46 189.761C1504.51 189.761 1504.15 190.608 1504.15 191.227V196.405ZM1509.73 196.405H1512.4V191.227C1512.4 190.478 1511.98 189.761 1511.03 189.761C1510.09 189.761 1509.73 190.608 1509.73 191.227V196.405ZM1515.31 196.405H1517.98V191.227C1517.98 190.478 1517.56 189.761 1516.61 189.761C1515.67 189.761 1515.31 190.608 1515.31 191.227V196.405ZM1520.89 196.405H1523.56V191.227C1523.56 190.478 1523.14 189.761 1522.19 189.761C1521.25 189.761 1520.89 190.608 1520.89 191.227V196.405ZM1526.47 196.405H1529.14V191.227C1529.14 190.478 1528.72 189.761 1527.77 189.761C1526.83 189.761 1526.47 190.608 1526.47 191.227V196.405ZM1532.05 196.405H1534.72V191.227C1534.72 190.478 1534.3 189.761 1533.35 189.761C1532.41 189.761 1532.05 190.608 1532.05 191.227V196.405ZM1537.63 196.405H1540.3V191.227C1540.3 190.478 1539.88 189.761 1538.93 189.761C1537.98 189.761 1537.63 190.608 1537.63 191.227V196.405ZM1543.21 196.405H1545.88V191.227C1545.88 190.478 1545.46 189.761 1544.51 189.761C1543.56 189.761 1543.21 190.608 1543.21 191.227V196.405ZM1548.78 196.405H1551.46V191.227C1551.46 190.478 1551.04 189.761 1550.09 189.761C1549.14 189.761 1548.78 190.608 1548.78 191.227V196.405ZM1466.76 233.921H1468.91V230.013C1468.91 229.459 1468.55 228.906 1467.8 228.906C1467.05 228.906 1466.76 229.524 1466.76 230.013V233.921ZM1457.72 233.921H1459.88V230.013C1459.88 229.459 1459.52 228.906 1458.77 228.906C1458.02 228.906 1457.72 229.524 1457.72 230.013V233.921ZM1462.22 233.921H1464.38V230.013C1464.38 229.459 1464.02 228.906 1463.27 228.906C1462.52 228.906 1462.22 229.524 1462.22 230.013V233.921ZM1554.36 196.405H1557.04V191.227C1557.04 190.478 1556.61 189.761 1555.67 189.761C1554.72 189.761 1554.36 190.608 1554.36 191.227V196.405ZM1580.01 218.517H1582.16V214.609C1582.16 214.056 1581.8 213.502 1581.05 213.502C1580.3 213.502 1580.01 214.121 1580.01 214.609V218.517ZM1570.97 218.517H1573.12V214.609C1573.12 214.056 1572.77 213.502 1572.01 213.502C1571.26 213.502 1570.97 214.121 1570.97 214.609V218.517ZM1575.51 218.517H1577.66V214.609C1577.66 214.056 1577.3 213.502 1576.55 213.502C1575.8 213.502 1575.51 214.121 1575.51 214.609V218.517ZM1514.3 232.195H1516.45V228.287C1516.45 227.733 1516.09 227.18 1515.34 227.18C1514.59 227.18 1514.3 227.798 1514.3 228.287V232.195ZM1496.22 232.195H1498.38V228.287C1498.38 227.733 1498.02 227.18 1497.27 227.18C1496.52 227.18 1496.22 227.798 1496.22 228.287V232.195ZM1500.76 232.195H1502.91V228.287C1502.91 227.733 1502.55 227.18 1501.8 227.18C1501.05 227.18 1500.76 227.798 1500.76 228.287V232.195ZM1505.26 232.195H1507.41V228.287C1507.41 227.733 1507.05 227.18 1506.3 227.18C1505.55 227.18 1505.26 227.798 1505.26 228.287V232.195ZM1509.79 232.195H1511.95V228.287C1511.95 227.733 1511.59 227.18 1510.84 227.18C1510.09 227.18 1509.79 227.798 1509.79 228.287V232.195ZM1567.19 234.995H1569.34V231.087C1569.34 230.534 1568.98 229.98 1568.23 229.98C1567.48 229.98 1567.19 230.599 1567.19 231.087V234.995ZM1549.11 234.995H1551.26V231.087C1551.26 230.534 1550.91 229.98 1550.15 229.98C1549.4 229.98 1549.11 230.599 1549.11 231.087V234.995ZM1553.61 234.995H1555.77V231.087C1555.77 230.534 1555.41 229.98 1554.66 229.98C1553.91 229.98 1553.61 230.599 1553.61 231.087V234.995ZM1558.15 234.995H1560.3V231.087C1560.3 230.534 1559.94 229.98 1559.19 229.98C1558.44 229.98 1558.15 230.599 1558.15 231.087V234.995ZM1562.68 234.995H1564.84V231.087C1564.84 230.534 1564.48 229.98 1563.73 229.98C1562.98 229.98 1562.68 230.599 1562.68 231.087V234.995ZM1512.5 218.354H1514.66V214.446C1514.66 213.893 1514.3 213.339 1513.55 213.339C1512.8 213.339 1512.5 213.958 1512.5 214.446V218.354ZM1508 218.354H1510.15V214.446C1510.15 213.893 1509.79 213.339 1509.04 213.339C1508.29 213.339 1508 213.958 1508 214.446V218.354ZM1503.47 218.354H1505.62V214.446C1505.62 213.893 1505.26 213.339 1504.51 213.339C1503.76 213.339 1503.47 213.958 1503.47 214.446V218.354ZM1391.68 275.768H1396.94V266.259C1396.94 264.891 1396.09 263.556 1394.26 263.556C1392.43 263.556 1391.68 265.086 1391.68 266.259V275.768ZM1380.36 275.768H1385.62V266.259C1385.62 264.891 1384.77 263.556 1382.94 263.556C1381.11 263.556 1380.36 265.086 1380.36 266.259V275.768ZM1369.07 275.768H1374.33V266.259C1374.33 264.891 1373.48 263.556 1371.65 263.556C1369.82 263.556 1369.07 265.086 1369.07 266.259V275.768ZM1357.75 275.768H1363V266.259C1363 264.891 1362.16 263.556 1360.33 263.556C1358.5 263.556 1357.75 265.086 1357.75 266.259V275.768ZM1346.43 275.768H1351.68V266.259C1351.68 264.891 1350.83 263.556 1349.01 263.556C1347.18 263.556 1346.43 265.086 1346.43 266.259V275.768ZM1403.01 275.768H1408.26V266.259C1408.26 264.891 1407.41 263.556 1405.58 263.556C1403.76 263.556 1403.01 265.086 1403.01 266.259V275.768ZM1333.15 266.389L1334.91 253.949C1334.91 253.949 1334.42 254.014 1334.42 253.753C1334.42 253.493 1334.78 253.037 1334.78 253.037L1335.24 213.241H1334.55C1334.46 213.241 1333.84 209.529 1333.84 209.529C1333.84 209.529 1333.54 209.008 1333.54 208.65V206.077C1333.54 205.621 1333.8 205.458 1334.1 205.458H1335.6V186.765C1335.6 186.765 1335.27 186.537 1335.27 186.212C1335.27 185.886 1335.17 185.3 1335.17 185.3C1335.17 185.3 1334.75 185.235 1334.75 184.616V183.216C1334.75 183.216 1334.39 183.216 1334.39 182.694C1334.36 182.173 1334.36 181.555 1334.36 181.555C1334.36 181.555 1334 181.262 1334 180.643V178.265C1334 177.907 1334.23 177.712 1334.65 177.712H1336.32L1336.54 157.912C1336.54 157.912 1336.25 157.879 1336.25 157.619C1336.25 157.358 1336.54 157.26 1336.54 157.26V156.772V154.33L1336.35 154.036C1336.35 154.036 1336.32 153.32 1336.32 153.255C1336.32 153.19 1336.45 153.125 1336.54 153.125C1336.64 153.125 1339.94 122.806 1339.94 122.806L1340 121.177C1340 121.177 1339.55 121.242 1339.55 120.559C1339.55 119.972 1340 119.94 1340 119.94V119.256C1340 119.256 1339.77 119.191 1339.77 118.833C1339.77 118.409 1340.13 118.344 1340.13 118.344V117.465C1340.13 117.465 1339.87 117.497 1339.87 117.074C1339.87 116.618 1340.33 116.26 1340.33 116.26V115.771C1340.33 115.771 1340.1 115.771 1340.1 115.543C1340.1 115.348 1340.33 115.283 1340.33 115.283V114.501C1340.33 114.501 1339.9 114.469 1339.94 113.785C1339.97 113.329 1340.17 113.199 1340.17 113.199C1340.17 113.199 1340 113.524 1340.1 113.915C1340.17 114.176 1340.3 114.176 1340.43 114.176C1340.56 114.176 1340.69 114.143 1340.75 113.915C1340.85 113.524 1340.69 113.199 1340.69 113.199C1340.69 113.199 1340.92 113.329 1340.92 113.785C1340.95 114.436 1340.52 114.501 1340.52 114.501V115.283C1340.52 115.283 1340.75 115.348 1340.75 115.543C1340.75 115.739 1340.52 115.771 1340.52 115.771V116.26C1340.52 116.26 1340.98 116.618 1340.98 117.074C1340.98 117.53 1340.72 117.465 1340.72 117.465V118.344C1340.72 118.344 1341.08 118.442 1341.08 118.833C1341.08 119.191 1340.85 119.256 1340.85 119.256V119.94C1340.85 119.94 1341.31 119.972 1341.31 120.559C1341.31 121.242 1340.85 121.177 1340.85 121.177L1340.92 122.806C1340.92 122.806 1344.21 153.125 1344.31 153.125C1344.41 153.125 1344.54 153.19 1344.54 153.255C1344.54 153.32 1344.5 154.036 1344.5 154.036L1344.31 154.33V156.772V157.26C1344.31 157.26 1344.6 157.326 1344.6 157.619C1344.6 157.879 1344.31 157.912 1344.31 157.912L1344.54 177.712H1346.2C1346.63 177.712 1346.85 177.907 1346.85 178.265V180.643C1346.85 181.294 1346.5 181.555 1346.5 181.555C1346.5 181.555 1346.5 182.141 1346.46 182.694C1346.43 183.216 1346.1 183.216 1346.1 183.216V184.616C1346.1 185.235 1345.68 185.3 1345.68 185.3C1345.68 185.3 1345.58 185.919 1345.58 186.212C1345.58 186.537 1345.26 186.765 1345.26 186.765V205.458H1346.76C1347.02 205.458 1347.31 205.621 1347.31 206.077V208.65C1347.31 209.008 1347.02 209.529 1347.02 209.529C1347.02 209.529 1346.36 213.241 1346.3 213.241H1345.61L1346.07 251.246L1351.94 250.822C1351.94 250.822 1353.77 247.208 1356.32 246.035C1358.7 244.928 1359.97 244.993 1359.97 244.993V244.733H1360.26L1360.36 243.235C1360.36 243.235 1360.13 243.104 1360.13 242.876C1360.17 242.42 1360.52 242.388 1360.52 242.388L1360.56 241.932C1360.56 241.932 1360.39 241.867 1360.43 241.704C1360.49 241.509 1360.66 241.541 1360.66 241.541L1360.72 240.727L1360.79 241.541C1360.79 241.541 1360.98 241.509 1361.01 241.704C1361.05 241.867 1360.88 241.932 1360.88 241.932L1360.92 242.388C1360.92 242.388 1361.28 242.42 1361.31 242.876C1361.31 243.104 1361.08 243.235 1361.08 243.235L1361.18 244.733H1361.47V244.993C1361.47 244.993 1362.74 244.928 1365.13 246.035C1365.52 246.231 1365.88 246.459 1366.23 246.719C1366.76 246.231 1367.38 245.775 1368.03 245.449C1370.41 244.342 1371.68 244.407 1371.68 244.407V244.146H1371.98L1372.07 242.648C1372.07 242.648 1371.85 242.518 1371.85 242.29C1371.88 241.834 1372.24 241.802 1372.24 241.802L1372.27 241.346C1372.27 241.346 1372.11 241.281 1372.14 241.118C1372.21 240.922 1372.37 240.955 1372.37 240.955L1372.43 240.141L1372.5 240.955C1372.5 240.955 1372.69 240.922 1372.73 241.118C1372.76 241.281 1372.6 241.346 1372.6 241.346L1372.63 241.802C1372.63 241.802 1372.99 241.834 1373.02 242.29C1373.02 242.518 1372.79 242.648 1372.79 242.648L1372.89 244.146H1373.18V244.407C1373.18 244.407 1374.46 244.342 1376.84 245.449C1376.94 245.482 1377.03 245.547 1377.13 245.612C1377.39 245.579 1377.56 245.579 1377.56 245.579V245.319H1377.85L1377.95 243.821C1377.95 243.821 1377.72 243.691 1377.72 243.463C1377.75 243.007 1378.11 242.974 1378.11 242.974L1378.14 242.518C1378.14 242.518 1377.98 242.453 1378.01 242.29C1378.08 242.095 1378.24 242.127 1378.24 242.127L1378.31 241.313L1378.37 242.127C1378.37 242.127 1378.57 242.095 1378.6 242.29C1378.63 242.453 1378.47 242.518 1378.47 242.518L1378.5 242.974C1378.5 242.974 1378.86 243.007 1378.89 243.463C1378.89 243.691 1378.67 243.821 1378.67 243.821L1378.76 245.026C1381.15 243.918 1382.42 243.951 1382.42 243.951V243.691H1382.71L1382.81 242.192C1382.81 242.192 1382.58 242.062 1382.58 241.834C1382.61 241.378 1382.97 241.346 1382.97 241.346L1383.01 240.89C1383.01 240.89 1382.84 240.825 1382.87 240.662C1382.91 240.467 1383.1 240.499 1383.1 240.499L1383.17 239.685L1383.23 240.499C1383.23 240.499 1383.43 240.467 1383.46 240.662C1383.49 240.825 1383.33 240.89 1383.33 240.89L1383.36 241.346C1383.36 241.346 1383.72 241.378 1383.76 241.834C1383.76 242.062 1383.53 242.192 1383.53 242.192L1383.63 243.691H1383.92V243.951C1383.92 243.951 1385.19 243.886 1387.57 244.993C1387.8 245.091 1388.03 245.221 1388.23 245.351C1388.65 245.026 1389.07 244.733 1389.53 244.537C1391.91 243.43 1393.18 243.495 1393.18 243.495V243.235H1393.48L1393.58 241.737C1393.58 241.737 1393.35 241.606 1393.35 241.378C1393.38 240.922 1393.74 240.89 1393.74 240.89L1393.77 240.434C1393.77 240.434 1393.61 240.369 1393.64 240.206C1393.67 240.011 1393.87 240.043 1393.87 240.043L1393.94 239.229L1394 240.043C1394 240.043 1394.2 240.011 1394.23 240.206C1394.26 240.369 1394.1 240.434 1394.1 240.434L1394.13 240.89C1394.13 240.89 1394.49 240.922 1394.52 241.378C1394.52 241.606 1394.29 241.737 1394.29 241.737L1394.39 243.235H1394.69V243.495C1394.69 243.495 1395.27 243.463 1396.38 243.788C1396.51 243.658 1396.64 243.625 1396.64 243.625L1396.68 243.169C1396.68 243.169 1396.51 243.104 1396.55 242.942C1396.58 242.746 1396.77 242.779 1396.77 242.779L1396.84 241.965L1396.9 242.779C1396.9 242.779 1397.1 242.746 1397.13 242.942C1397.17 243.104 1397 243.169 1397 243.169L1397.03 243.625C1397.03 243.625 1397.39 243.658 1397.43 244.114L1398.44 244.668C1398.8 244.407 1399.16 244.146 1399.55 243.984C1401.93 242.876 1403.2 242.942 1403.2 242.942V242.681H1403.5L1403.59 241.183C1403.59 241.183 1403.36 241.053 1403.36 240.825C1403.4 240.369 1403.76 240.336 1403.76 240.336L1403.79 239.88C1403.79 239.88 1403.63 239.815 1403.66 239.652C1403.69 239.457 1403.89 239.49 1403.89 239.49L1403.95 238.675L1404.02 239.49C1404.02 239.49 1404.21 239.457 1404.25 239.652C1404.28 239.815 1404.12 239.88 1404.12 239.88L1404.15 240.336C1404.15 240.336 1404.51 240.369 1404.54 240.825C1404.54 241.053 1404.31 241.183 1404.31 241.183L1404.41 242.681H1404.7V242.942C1404.7 242.942 1406.01 242.876 1408.36 243.984C1408.55 243.853 1408.78 243.723 1408.98 243.625C1411.36 242.518 1412.63 242.583 1412.63 242.583V242.323H1412.92L1413.02 240.825C1413.02 240.825 1412.79 240.694 1412.79 240.466C1412.83 240.011 1413.19 239.978 1413.19 239.978L1413.22 239.522C1413.22 239.522 1413.05 239.457 1413.09 239.294C1413.12 239.099 1413.32 239.131 1413.32 239.131L1413.38 238.317L1413.45 239.131C1413.45 239.131 1413.64 239.099 1413.67 239.294C1413.71 239.457 1413.54 239.522 1413.54 239.522L1413.58 239.978C1413.58 239.978 1413.94 240.011 1413.97 240.466C1413.97 240.694 1413.74 240.825 1413.74 240.825L1413.84 242.323H1414.13V242.583C1414.13 242.583 1415.4 242.518 1417.79 243.625C1417.98 243.495 1418.18 243.397 1418.37 243.3C1420.75 242.192 1422.03 242.258 1422.03 242.258V241.997H1422.32L1422.42 240.499C1422.42 240.499 1422.19 240.369 1422.19 240.141C1422.22 239.685 1422.58 239.652 1422.58 239.652L1422.61 239.196C1422.61 239.196 1422.45 239.131 1422.48 238.968C1422.52 238.773 1422.71 238.806 1422.71 238.806L1422.78 237.991L1422.84 238.806C1422.84 238.806 1423.04 238.773 1423.07 238.968C1423.1 239.131 1422.94 239.196 1422.94 239.196L1422.97 239.652C1422.97 239.652 1423.33 239.685 1423.37 240.141C1423.37 240.369 1423.14 240.499 1423.14 240.499L1423.23 241.997H1423.53V242.258C1423.53 242.258 1423.76 242.258 1424.15 242.323C1425.65 241.802 1426.43 241.834 1426.43 241.834V241.574H1426.73L1426.82 240.076C1426.82 240.076 1426.6 239.945 1426.6 239.717C1426.63 239.262 1426.99 239.229 1426.99 239.229L1427.02 238.773C1427.02 238.773 1426.86 238.708 1426.89 238.545C1426.92 238.35 1427.12 238.382 1427.12 238.382L1427.18 237.568L1427.25 238.382C1427.25 238.382 1427.44 238.35 1427.48 238.545C1427.51 238.708 1427.35 238.773 1427.35 238.773L1427.38 239.229C1427.38 239.229 1427.74 239.262 1427.77 239.717C1427.77 239.945 1427.54 240.076 1427.54 240.076L1427.64 241.574H1427.93V241.834C1427.93 241.834 1428.26 241.802 1428.49 241.834V213.958H1427.22C1427.15 213.958 1426.66 210.701 1426.66 210.701C1426.66 210.701 1426.43 210.245 1426.43 209.92V207.64C1426.43 207.249 1426.63 207.119 1426.86 207.119H1428.75V191.227H1428.19C1428.13 191.227 1427.64 187.97 1427.64 187.97C1427.64 187.97 1427.41 187.514 1427.41 187.189V184.909C1427.41 184.518 1427.61 184.388 1427.83 184.388H1428.98V169.538C1428.98 169.538 1428.72 169.31 1428.72 169.049C1428.72 168.756 1428.65 168.235 1428.65 168.235C1428.65 168.235 1428.32 168.17 1428.32 167.616V166.379C1428.32 166.379 1428.06 166.379 1428.03 165.923C1428 165.467 1428 164.946 1428 164.946C1428 164.946 1427.7 164.685 1427.7 164.132V162.048C1427.7 161.722 1427.87 161.559 1428.19 161.559H1429.5L1429.69 147.881C1429.69 147.881 1429.47 147.849 1429.47 147.621C1429.47 147.393 1429.69 147.328 1429.69 147.328V146.904V144.755L1429.56 144.495C1429.56 144.495 1429.53 143.876 1429.53 143.811C1429.53 143.746 1429.63 143.68 1429.69 143.68C1429.76 143.68 1432.3 117.041 1432.3 117.041L1432.37 115.609C1432.37 115.609 1432.04 115.674 1432.04 115.055C1432.04 114.534 1432.4 114.501 1432.4 114.501V113.883C1432.4 113.883 1432.21 113.817 1432.21 113.524C1432.21 113.166 1432.47 113.068 1432.47 113.068V112.287C1432.47 112.287 1432.27 112.319 1432.27 111.929C1432.27 111.538 1432.6 111.212 1432.6 111.212V110.789C1432.6 110.789 1432.44 110.789 1432.44 110.593C1432.44 110.431 1432.6 110.365 1432.6 110.365V109.682C1432.6 109.682 1432.27 109.649 1432.3 109.063C1432.34 108.672 1432.5 108.542 1432.5 108.542C1432.5 108.542 1432.37 108.835 1432.44 109.161C1432.47 109.388 1432.6 109.388 1432.7 109.388C1432.79 109.388 1432.89 109.388 1432.96 109.161C1433.02 108.835 1432.89 108.542 1432.89 108.542C1432.89 108.542 1433.06 108.672 1433.09 109.063C1433.12 109.649 1432.79 109.682 1432.79 109.682V110.365C1432.79 110.365 1432.96 110.431 1432.96 110.593C1432.96 110.756 1432.79 110.789 1432.79 110.789V111.212C1432.79 111.212 1433.12 111.538 1433.12 111.929C1433.12 112.319 1432.92 112.287 1432.92 112.287V113.068C1432.92 113.068 1433.19 113.134 1433.19 113.524C1433.19 113.85 1432.99 113.883 1432.99 113.883V114.501C1432.99 114.501 1433.35 114.534 1433.35 115.055C1433.35 115.641 1433.02 115.609 1433.02 115.609L1433.09 117.041C1433.09 117.041 1435.63 143.68 1435.7 143.68C1435.76 143.68 1435.86 143.746 1435.86 143.811C1435.86 143.876 1435.83 144.495 1435.83 144.495L1435.7 144.755V146.904V147.328C1435.7 147.328 1435.93 147.393 1435.93 147.621C1435.93 147.849 1435.7 147.881 1435.7 147.881L1435.89 161.559H1437.2C1437.53 161.559 1437.69 161.722 1437.69 162.048V164.132C1437.69 164.685 1437.39 164.946 1437.39 164.946C1437.39 164.946 1437.39 165.467 1437.36 165.923C1437.33 166.379 1437.07 166.379 1437.07 166.379V167.616C1437.07 168.137 1436.74 168.235 1436.74 168.235C1436.74 168.235 1436.68 168.756 1436.68 169.049C1436.68 169.342 1436.42 169.538 1436.42 169.538V184.388H1437.56C1437.75 184.388 1437.98 184.518 1437.98 184.909V187.189C1437.98 187.514 1437.75 187.97 1437.75 187.97C1437.75 187.97 1437.26 191.227 1437.2 191.227H1436.64V207.119H1438.54C1438.73 207.119 1438.96 207.249 1438.96 207.64V209.92C1438.96 210.245 1438.73 210.701 1438.73 210.701C1438.73 210.701 1438.24 213.958 1438.18 213.958H1436.91V233.204L1442.75 232.976V227.342L1442.26 227.049V226.593L1444.18 226.3V222.946L1443.82 222.62V222.295C1443.82 222.295 1444.44 222.197 1444.67 221.969C1444.9 221.741 1444.93 219.299 1447.38 219.299C1449.83 219.299 1450.02 221.676 1450.28 221.871C1450.64 222.164 1451.1 222.295 1451.1 222.295V222.653L1450.74 222.946V225.421H1456.16V219.624H1455.8V219.103L1458.99 217.931H1464.93L1466.79 217.735C1466.79 217.735 1466.69 216.726 1467.05 216.433C1467.41 216.14 1467.64 215.619 1467.67 215.456C1467.71 215.293 1467.71 215.098 1467.71 215.098C1467.71 215.098 1467.61 215.098 1467.61 214.967C1467.61 214.837 1467.74 214.837 1467.74 214.837V213.534C1467.74 213.534 1467.35 213.534 1467.35 212.981C1467.35 212.427 1467.87 212.33 1467.87 212.33V211.483C1467.87 211.483 1467.51 211.483 1467.51 211.059C1467.51 210.669 1467.9 210.636 1467.9 210.636V209.594C1467.9 209.594 1467.48 209.529 1467.48 209.203C1467.48 208.878 1468.03 208.161 1468.03 208.161V207.705C1468.03 207.705 1467.93 207.705 1467.93 207.607C1467.93 207.477 1468.03 207.51 1468.03 207.51V206.826C1468.03 206.826 1467.8 206.761 1467.8 206.402C1467.8 206.044 1468.13 205.719 1468.16 205.621C1468.19 205.523 1468.33 204.709 1468.33 204.709C1468.33 204.709 1468.46 205.556 1468.49 205.621C1468.52 205.719 1468.85 206.044 1468.85 206.402C1468.85 206.761 1468.62 206.826 1468.62 206.826V207.575C1468.62 207.575 1468.72 207.542 1468.72 207.673C1468.72 207.77 1468.62 207.77 1468.62 207.77V208.226C1468.62 208.226 1469.17 208.943 1469.17 209.268C1469.17 209.594 1468.75 209.659 1468.75 209.659V210.701C1468.75 210.701 1469.14 210.734 1469.14 211.125C1469.14 211.548 1468.78 211.548 1468.78 211.548V212.395C1468.78 212.395 1469.3 212.492 1469.3 213.046C1469.3 213.6 1468.91 213.6 1468.91 213.6V214.414H1470.51C1470.51 214.414 1471.95 213.241 1472.4 213.241H1474.79V212.004L1474.33 211.841V211.32H1476.84C1476.84 211.32 1478.67 210.669 1478.99 210.343C1479.32 210.017 1481.21 207.673 1481.21 207.673V198L1480.92 197.838V197.284C1480.92 197.284 1481.83 197.219 1481.96 196.763C1482.09 196.307 1482.26 195.102 1482.52 194.548C1482.78 194.027 1483.3 193.571 1483.3 193.571L1483.01 192.269C1483.01 192.269 1482.78 191.878 1482.78 191.585V189.598C1482.78 189.273 1482.98 189.143 1483.17 189.143H1484.22V176.312C1484.22 176.312 1483.99 176.116 1483.99 175.888C1483.99 175.628 1483.92 175.172 1483.92 175.172C1483.92 175.172 1483.63 175.107 1483.63 174.651V173.576C1483.63 173.576 1483.4 173.576 1483.37 173.185C1483.37 172.762 1483.33 172.306 1483.33 172.306C1483.33 172.306 1483.07 172.078 1483.07 171.589V169.766C1483.07 169.473 1483.24 169.342 1483.53 169.342H1484.7L1484.87 156.023C1484.87 156.023 1484.64 155.99 1484.64 155.795C1484.64 155.6 1484.83 155.534 1484.83 155.534V155.176V153.32L1484.7 153.092C1484.7 153.092 1484.67 152.538 1484.67 152.506C1484.67 152.473 1484.77 152.408 1484.83 152.408C1484.9 152.408 1487.22 129.221 1487.22 129.221L1487.28 127.984C1487.28 127.984 1486.96 128.016 1486.96 127.528C1486.96 127.072 1487.28 127.072 1487.28 127.072V126.551C1487.28 126.551 1487.12 126.518 1487.12 126.225C1487.12 125.899 1487.38 125.834 1487.38 125.834V125.15C1487.38 125.15 1487.18 125.183 1487.18 124.857C1487.18 124.532 1487.51 124.239 1487.51 124.239V123.88C1487.51 123.88 1487.35 123.88 1487.35 123.717C1487.35 123.555 1487.51 123.522 1487.51 123.522V122.936C1487.51 122.936 1487.22 122.903 1487.25 122.382C1487.25 122.057 1487.41 121.926 1487.41 121.926C1487.41 121.926 1487.31 122.187 1487.38 122.48C1487.41 122.675 1487.54 122.675 1487.61 122.675C1487.71 122.675 1487.8 122.675 1487.84 122.48C1487.9 122.187 1487.8 121.926 1487.8 121.926C1487.8 121.926 1487.97 122.024 1487.97 122.382C1488 122.903 1487.71 122.936 1487.71 122.936V123.522C1487.71 123.522 1487.87 123.587 1487.87 123.717C1487.87 123.88 1487.71 123.88 1487.71 123.88V124.239C1487.71 124.239 1488.03 124.532 1488.03 124.857C1488.03 125.183 1487.84 125.15 1487.84 125.15V125.834C1487.84 125.834 1488.1 125.899 1488.1 126.225C1488.1 126.518 1487.93 126.551 1487.93 126.551V127.072C1487.93 127.072 1488.26 127.104 1488.26 127.528C1488.26 128.049 1487.93 127.984 1487.93 127.984L1488 129.221C1488 129.221 1490.35 152.408 1490.38 152.408C1490.45 152.408 1490.54 152.473 1490.54 152.506C1490.54 152.538 1490.51 153.092 1490.51 153.092L1490.38 153.32V155.176V155.534C1490.38 155.534 1490.58 155.6 1490.58 155.795C1490.58 155.99 1490.35 156.023 1490.35 156.023L1490.51 169.342H1491.69C1491.98 169.342 1492.14 169.505 1492.14 169.766V171.589C1492.14 172.078 1491.88 172.306 1491.88 172.306C1491.88 172.306 1491.88 172.762 1491.85 173.185C1491.85 173.576 1491.59 173.576 1491.59 173.576V174.651C1491.59 175.107 1491.3 175.172 1491.3 175.172C1491.3 175.172 1491.23 175.628 1491.23 175.888C1491.23 176.149 1491 176.312 1491 176.312V189.143H1492.05C1492.24 189.143 1492.44 189.273 1492.44 189.598V191.585C1492.44 191.878 1492.21 192.269 1492.21 192.269L1492.96 192.92V191.129L1499.68 189.11V188.654C1499.68 188.654 1499.26 188.556 1499.22 188.394C1499.19 188.231 1499.22 188.068 1499.22 188.068C1499.22 188.068 1499.09 188.068 1499.13 187.905C1499.13 187.742 1499.45 187.612 1499.75 187.547C1500.01 187.482 1500.79 187.351 1501.54 187.286C1502.26 187.221 1502.78 187.351 1503.73 185.984C1504.67 184.616 1506.47 180.903 1509.66 178.298C1512.83 175.693 1515.05 173.934 1517.95 172.794C1520.86 171.655 1523.3 171.003 1523.3 171.003L1523.6 150.031C1523.6 150.031 1523.2 149.998 1523.2 149.705C1523.2 149.412 1523.6 149.314 1523.6 149.314V148.793V146.09L1523.37 145.765C1523.37 145.765 1523.3 144.983 1523.3 144.918C1523.3 144.853 1523.47 144.755 1523.6 144.755C1523.73 144.755 1528.03 111.245 1528.03 111.245L1528.13 109.454C1528.13 109.454 1527.54 109.519 1527.54 108.77C1527.54 108.118 1528.13 108.086 1528.13 108.086V107.337C1528.13 107.337 1527.8 107.272 1527.8 106.881C1527.8 106.425 1528.26 106.327 1528.26 106.327V105.35C1528.26 105.35 1527.9 105.383 1527.9 104.894C1527.9 104.406 1528.49 104.015 1528.49 104.015V103.494C1528.49 103.494 1528.2 103.494 1528.2 103.266C1528.2 103.038 1528.49 102.973 1528.49 102.973V102.126C1528.49 102.126 1527.94 102.094 1528 101.345C1528.03 100.856 1528.29 100.693 1528.29 100.693C1528.29 100.693 1528.1 101.052 1528.2 101.475C1528.26 101.735 1528.46 101.768 1528.62 101.768C1528.78 101.768 1528.98 101.735 1529.04 101.475C1529.14 101.052 1528.95 100.693 1528.95 100.693C1528.95 100.693 1529.24 100.856 1529.24 101.345C1529.27 102.094 1528.75 102.126 1528.75 102.126V102.973C1528.75 102.973 1529.04 103.038 1529.04 103.266C1529.04 103.494 1528.75 103.494 1528.75 103.494V104.015C1528.75 104.015 1529.34 104.406 1529.34 104.894C1529.34 105.383 1528.98 105.35 1528.98 105.35V106.327C1528.98 106.327 1529.44 106.425 1529.44 106.881C1529.44 107.272 1529.11 107.337 1529.11 107.337V108.086C1529.11 108.086 1529.7 108.118 1529.7 108.77C1529.7 109.519 1529.11 109.454 1529.11 109.454L1529.21 111.245C1529.21 111.245 1533.51 144.755 1533.65 144.755C1533.74 144.755 1533.94 144.853 1533.94 144.918C1533.94 144.983 1533.87 145.765 1533.87 145.765L1533.65 146.09V148.793V149.314C1533.65 149.314 1534.04 149.412 1534.04 149.705C1534.04 149.998 1533.65 150.031 1533.65 150.031L1533.94 170.515C1533.94 170.515 1538.12 171.492 1541.02 172.599C1543.92 173.739 1546.17 175.139 1549.34 177.712C1552.5 180.317 1554.85 184.127 1555.77 185.463C1556.71 186.798 1557.23 186.668 1557.95 186.765C1558.67 186.83 1559.45 186.993 1559.75 187.026C1560.01 187.091 1560.33 187.221 1560.37 187.384C1560.37 187.547 1560.27 187.547 1560.27 187.547C1560.27 187.547 1560.3 187.71 1560.27 187.872C1560.24 188.035 1559.81 188.133 1559.81 188.133V190.934L1564.12 192.92L1564.35 194.255C1564.35 194.255 1565.33 193.278 1566.24 192.92C1567.02 192.627 1567.74 192.692 1567.74 192.692V192.171C1567.74 192.041 1567.97 191.715 1568.23 191.618C1568.52 191.52 1568.59 191.39 1568.59 191.259V190.771C1568.59 190.771 1568.3 190.738 1568.3 190.478C1568.3 190.217 1568.65 189.924 1568.65 189.924V189.273C1568.65 189.273 1568.46 189.273 1568.46 189.045C1568.46 188.849 1568.72 188.849 1568.72 188.849V188.231C1568.72 188.231 1568.49 188.133 1568.65 187.84L1568.88 187.482L1569.11 187.84C1569.31 188.1 1569.05 188.231 1569.05 188.231V188.849C1569.05 188.849 1569.27 188.849 1569.31 189.045C1569.31 189.273 1569.11 189.273 1569.11 189.273V189.924C1569.11 189.924 1569.47 190.217 1569.47 190.478C1569.47 190.738 1569.18 190.771 1569.18 190.771V191.259C1569.18 191.39 1569.24 191.52 1569.54 191.618C1569.83 191.715 1570.02 192.008 1570.02 192.171V192.725C1570.02 192.725 1572.31 192.92 1573.65 194.874C1574.98 196.796 1574.95 197.675 1575.08 197.968C1575.21 198.261 1576.22 198.749 1576.22 198.749V199.271L1575.87 199.499V204.286L1577.33 205.263V190.38H1576.78C1576.71 190.38 1576.22 187.123 1576.22 187.123C1576.22 187.123 1576 186.668 1576 186.342V184.062C1576 183.671 1576.19 183.541 1576.42 183.541H1577.56V167.388C1577.56 167.388 1577.3 167.161 1577.3 166.9C1577.3 166.607 1577.24 166.086 1577.24 166.086C1577.24 166.086 1576.91 166.021 1576.91 165.467V164.23C1576.91 164.23 1576.65 164.23 1576.62 163.774C1576.58 163.318 1576.58 162.797 1576.58 162.797C1576.58 162.797 1576.29 162.536 1576.29 161.983V159.898C1576.29 159.573 1576.45 159.41 1576.78 159.41H1578.08L1578.28 141.271C1578.28 141.271 1578.05 141.238 1578.05 141.01C1578.05 140.782 1578.28 140.717 1578.28 140.717V140.294V138.144L1578.15 137.884C1578.15 137.884 1578.12 137.265 1578.12 137.2C1578.12 137.135 1578.21 137.07 1578.28 137.07C1578.34 137.07 1580.89 110.431 1580.89 110.431L1580.95 108.998C1580.95 108.998 1580.63 109.063 1580.63 108.444C1580.63 107.923 1580.99 107.89 1580.99 107.89V107.272C1580.99 107.272 1580.79 107.207 1580.79 106.913C1580.79 106.555 1581.05 106.458 1581.05 106.458V105.676C1581.05 105.676 1580.86 105.709 1580.86 105.318C1580.86 104.927 1581.18 104.601 1581.18 104.601V104.178C1581.18 104.178 1581.02 104.178 1581.02 103.983C1581.02 103.82 1581.18 103.755 1581.18 103.755V103.071C1581.18 103.071 1580.86 103.038 1580.89 102.452C1580.92 102.061 1581.09 101.931 1581.09 101.931C1581.09 101.931 1580.95 102.224 1581.02 102.55C1581.05 102.778 1581.18 102.778 1581.28 102.778C1581.38 102.778 1581.48 102.778 1581.54 102.55C1581.61 102.224 1581.48 101.931 1581.48 101.931C1581.48 101.931 1581.64 102.061 1581.67 102.452C1581.71 103.038 1581.38 103.071 1581.38 103.071V103.755C1581.38 103.755 1581.54 103.82 1581.54 103.983C1581.54 104.145 1581.38 104.178 1581.38 104.178V104.601C1581.38 104.601 1581.71 104.927 1581.71 105.318C1581.71 105.709 1581.51 105.676 1581.51 105.676V106.458C1581.51 106.458 1581.77 106.523 1581.77 106.913C1581.77 107.239 1581.57 107.272 1581.57 107.272V107.89C1581.57 107.89 1581.93 107.923 1581.93 108.444C1581.93 109.03 1581.61 108.998 1581.61 108.998L1581.67 110.431C1581.67 110.431 1584.22 137.07 1584.28 137.07C1584.35 137.07 1584.45 137.135 1584.45 137.2C1584.45 137.265 1584.41 137.884 1584.41 137.884L1584.28 138.144V140.294V140.717C1584.28 140.717 1584.51 140.782 1584.51 141.01C1584.51 141.238 1584.28 141.271 1584.28 141.271L1584.48 159.41H1585.78C1586.11 159.41 1586.27 159.573 1586.27 159.898V161.983C1586.27 162.536 1585.98 162.797 1585.98 162.797C1585.98 162.797 1585.98 163.318 1585.95 163.774C1585.91 164.23 1585.65 164.23 1585.65 164.23V165.467C1585.65 165.988 1585.33 166.086 1585.33 166.086C1585.33 166.086 1585.26 166.607 1585.26 166.9C1585.26 167.193 1585 167.388 1585 167.388V183.541H1586.14C1586.34 183.541 1586.57 183.671 1586.57 184.062V186.342C1586.57 186.668 1586.34 187.123 1586.34 187.123C1586.34 187.123 1585.85 190.38 1585.78 190.38H1585.23V209.203H1587.12C1587.32 209.203 1587.55 209.333 1587.55 209.724V212.004C1587.55 212.33 1587.32 212.785 1587.32 212.785C1587.32 212.785 1586.83 216.042 1586.76 216.042C1586.7 216.042 1586.76 218.973 1586.76 218.973H1598.74L1602.29 220.113V220.634H1601.64V226.235H1607.94V223.956L1607.58 223.63V223.304C1607.58 223.304 1608.2 223.207 1608.43 222.979C1608.66 222.751 1608.69 220.308 1611.14 220.308C1613.58 220.308 1613.78 222.685 1614.04 222.881V215.814H1612.93C1612.86 215.814 1612.44 213.306 1612.44 213.306C1612.44 213.306 1612.24 212.916 1612.24 212.623V210.636C1612.24 210.278 1612.44 210.18 1612.6 210.18H1614.27V194.679H1613.78C1613.71 194.679 1613.29 191.813 1613.29 191.813C1613.29 191.813 1613.09 191.422 1613.09 191.129V189.143C1613.09 188.784 1613.29 188.687 1613.45 188.687H1614.46V174.455C1614.46 174.455 1614.23 174.26 1614.23 174.032C1614.23 173.771 1614.17 173.315 1614.17 173.315C1614.17 173.315 1613.88 173.25 1613.88 172.794V171.687C1613.88 171.687 1613.65 171.687 1613.61 171.296C1613.61 170.873 1613.58 170.417 1613.58 170.417C1613.58 170.417 1613.32 170.189 1613.32 169.701V167.844C1613.32 167.551 1613.45 167.421 1613.75 167.421H1614.89L1615.05 150.324C1615.05 150.324 1614.85 150.291 1614.85 150.096C1614.85 149.901 1615.05 149.835 1615.05 149.835V149.445V147.556L1614.92 147.328C1614.92 147.328 1614.89 146.774 1614.89 146.742C1614.89 146.709 1614.99 146.644 1615.02 146.644C1615.08 146.644 1617.3 123.164 1617.3 123.164L1617.37 121.926C1617.37 121.926 1617.07 121.959 1617.07 121.438C1617.07 120.982 1617.37 120.949 1617.37 120.949V120.428C1617.37 120.428 1617.2 120.396 1617.2 120.103C1617.2 119.777 1617.43 119.712 1617.43 119.712V118.898C1617.43 118.898 1617.24 118.93 1617.24 118.572C1617.24 118.214 1617.53 117.953 1617.53 117.953V117.595C1617.53 117.595 1617.4 117.595 1617.4 117.432C1617.4 117.269 1617.56 117.237 1617.56 117.237V116.618C1617.56 116.618 1617.27 116.586 1617.3 116.064C1617.3 115.706 1617.46 115.609 1617.46 115.609C1617.46 115.609 1617.37 115.869 1617.43 116.162C1617.46 116.358 1617.56 116.358 1617.66 116.358C1617.73 116.358 1617.86 116.358 1617.89 116.162C1617.95 115.869 1617.86 115.609 1617.86 115.609C1617.86 115.609 1617.99 115.706 1618.02 116.064C1618.05 116.586 1617.76 116.618 1617.76 116.618V117.204C1617.76 117.204 1617.92 117.269 1617.92 117.4C1617.92 117.563 1617.79 117.563 1617.79 117.563V117.953C1617.79 117.953 1618.08 118.246 1618.08 118.572C1618.08 118.93 1617.89 118.898 1617.89 118.898V119.582C1617.89 119.582 1618.12 119.647 1618.12 119.972C1618.12 120.266 1617.95 120.298 1617.95 120.298V120.819C1617.95 120.819 1618.25 120.852 1618.25 121.308C1618.25 121.829 1617.95 121.796 1617.95 121.796L1618.02 123.034C1618.02 123.034 1620.27 146.514 1620.3 146.514C1620.37 146.514 1620.43 146.579 1620.43 146.611C1620.43 146.644 1620.4 147.198 1620.4 147.198L1620.27 147.426V149.314V149.705C1620.27 149.705 1620.47 149.77 1620.47 149.966C1620.47 150.161 1620.27 150.194 1620.27 150.194L1620.43 167.291H1621.58C1621.87 167.291 1622 167.454 1622 167.714V169.57C1622 170.059 1621.74 170.287 1621.74 170.287C1621.74 170.287 1621.74 170.743 1621.71 171.166C1621.71 171.557 1621.45 171.557 1621.45 171.557V172.664C1621.45 173.12 1621.15 173.185 1621.15 173.185C1621.15 173.185 1621.09 173.641 1621.09 173.902C1621.09 174.162 1620.86 174.325 1620.86 174.325V188.556H1621.87C1622.07 188.556 1622.23 188.687 1622.23 189.012V190.999C1622.23 191.292 1622.03 191.683 1622.03 191.683C1622.03 191.683 1621.61 194.548 1621.54 194.548H1621.05V210.05H1622.72C1622.91 210.05 1623.08 210.18 1623.08 210.506V212.492C1623.08 212.785 1622.88 213.176 1622.88 213.176C1622.88 213.176 1622.46 215.684 1622.39 215.684H1621.28V249.65L1631.82 258.475H1644.45V288.338H1332.3V266.389H1333.15Z" fill="#E4E4E4"/>
<path d="M1203.62 282.933L1177.06 288.501H1205.55L1203.62 282.933Z" fill="#E4E4E4"/>
<path d="M1920 278.438H0.216568V289.4H1920V278.438Z" fill="#E4E4E4"/>
<path d="M1919.53 276.647H1314.06V288.501H1919.53V276.647Z" fill="#E4E4E4"/>
<path fill-rule="evenodd" clip-rule="evenodd" d="M707.196 288.633H727.817L694.374 271.145L707.196 288.633Z" fill="#E4E4E4"/>
</svg>
